  0
SECTION
  2
HEADER
  9
$ACADVER
  1
AC1021
  9
$ACADMAINTVER
 70
    25
  9
$DWGCODEPAGE
  3
ANSI_1252
  9
$INSBASE
 10
0.0
 20
0.0
 30
0.0
  9
$EXTMIN
 10
-3.287870078740157
 20
-3.097633858267717
 30
0.0
  9
$EXTMAX
 10
2.981122047244094
 20
2.972350393700788
 30
0.0
  9
$LIMMIN
 10
0.0
 20
0.0
  9
$LIMMAX
 10
12.0
 20
9.0
  9
$ORTHOMODE
 70
     0
  9
$REGENMODE
 70
     1
  9
$FILLMODE
 70
     1
  9
$QTEXTMODE
 70
     0
  9
$MIRRTEXT
 70
     1
  9
$LTSCALE
 40
1.0
  9
$ATTMODE
 70
     1
  9
$TEXTSIZE
 40
0.2
  9
$TRACEWID
 40
0.05
  9
$TEXTSTYLE
  7
Standard
  9
$CLAYER
  8
0
  9
$CELTYPE
  6
ByLayer
  9
$CECOLOR
 62
   256
  9
$CELTSCALE
 40
1.0
  9
$DISPSILH
 70
     0
  9
$DIMSCALE
 40
1.0
  9
$DIMASZ
 40
0.18
  9
$DIMEXO
 40
0.0625
  9
$DIMDLI
 40
0.38
  9
$DIMRND
 40
0.0
  9
$DIMDLE
 40
0.0
  9
$DIMEXE
 40
0.18
  9
$DIMTP
 40
0.0
  9
$DIMTM
 40
0.0
  9
$DIMTXT
 40
0.18
  9
$DIMCEN
 40
0.09
  9
$DIMTSZ
 40
0.0
  9
$DIMTOL
 70
     0
  9
$DIMLIM
 70
     0
  9
$DIMTIH
 70
     1
  9
$DIMTOH
 70
     1
  9
$DIMSE1
 70
     0
  9
$DIMSE2
 70
     0
  9
$DIMTAD
 70
     0
  9
$DIMZIN
 70
     0
  9
$DIMBLK
  1

  9
$DIMASO
 70
     1
  9
$DIMSHO
 70
     1
  9
$DIMPOST
  1

  9
$DIMAPOST
  1

  9
$DIMALT
 70
     0
  9
$DIMALTD
 70
     2
  9
$DIMALTF
 40
25.4
  9
$DIMLFAC
 40
1.0
  9
$DIMTOFL
 70
     0
  9
$DIMTVP
 40
0.0
  9
$DIMTIX
 70
     0
  9
$DIMSOXD
 70
     0
  9
$DIMSAH
 70
     0
  9
$DIMBLK1
  1

  9
$DIMBLK2
  1

  9
$DIMSTYLE
  2
Standard
  9
$DIMCLRD
 70
     0
  9
$DIMCLRE
 70
     0
  9
$DIMCLRT
 70
     0
  9
$DIMTFAC
 40
1.0
  9
$DIMGAP
 40
0.09
  9
$DIMJUST
 70
     0
  9
$DIMSD1
 70
     0
  9
$DIMSD2
 70
     0
  9
$DIMTOLJ
 70
     1
  9
$DIMTZIN
 70
     0
  9
$DIMALTZ
 70
     0
  9
$DIMALTTZ
 70
     0
  9
$DIMUPT
 70
     0
  9
$DIMDEC
 70
     4
  9
$DIMTDEC
 70
     4
  9
$DIMALTU
 70
     2
  9
$DIMALTTD
 70
     2
  9
$DIMTXSTY
  7
Standard
  9
$DIMAUNIT
 70
     0
  9
$DIMADEC
 70
     0
  9
$DIMALTRND
 40
0.0
  9
$DIMAZIN
 70
     0
  9
$DIMDSEP
 70
    46
  9
$DIMATFIT
 70
     3
  9
$DIMFRAC
 70
     0
  9
$DIMLDRBLK
  1

  9
$DIMLUNIT
 70
     2
  9
$DIMLWD
 70
    -2
  9
$DIMLWE
 70
    -2
  9
$DIMTMOVE
 70
     0
  9
$DIMFXL
 40
1.0
  9
$DIMFXLON
 70
     0
  9
$DIMJOGANG
 40
0.7853981633974483
  9
$DIMTFILL
 70
     0
  9
$DIMTFILLCLR
 70
     0
  9
$DIMARCSYM
 70
     0
  9
$DIMLTYPE
  6

  9
$DIMLTEX1
  6

  9
$DIMLTEX2
  6

  9
$LUNITS
 70
     2
  9
$LUPREC
 70
     4
  9
$SKETCHINC
 40
0.1
  9
$FILLETRAD
 40
0.5
  9
$AUNITS
 70
     0
  9
$AUPREC
 70
     0
  9
$MENU
  1
.
  9
$ELEVATION
 40
0.0
  9
$PELEVATION
 40
0.0
  9
$THICKNESS
 40
0.0
  9
$LIMCHECK
 70
     0
  9
$CHAMFERA
 40
0.5
  9
$CHAMFERB
 40
0.5
  9
$CHAMFERC
 40
1.0
  9
$CHAMFERD
 40
0.0
  9
$SKPOLY
 70
     0
  9
$TDCREATE
 40
2458854.24910544
  9
$TDUCREATE
 40
2458854.582438773
  9
$TDUPDATE
 40
2458854.249105451
  9
$TDUUPDATE
 40
2458854.582438785
  9
$TDINDWG
 40
0.0000000116
  9
$TDUSRTIMER
 40
0.0000000116
  9
$USRTIMER
 70
     1
  9
$ANGBASE
 50
0.0
  9
$ANGDIR
 70
     0
  9
$PDMODE
 70
     0
  9
$PDSIZE
 40
0.0
  9
$PLINEWID
 40
0.0
  9
$SPLFRAME
 70
     0
  9
$SPLINETYPE
 70
     6
  9
$SPLINESEGS
 70
     8
  9
$HANDSEED
  5
7B
  9
$SURFTAB1
 70
     6
  9
$SURFTAB2
 70
     6
  9
$SURFTYPE
 70
     6
  9
$SURFU
 70
     6
  9
$SURFV
 70
     6
  9
$UCSBASE
  2

  9
$UCSNAME
  2

  9
$UCSORG
 10
0.0
 20
0.0
 30
0.0
  9
$UCSXDIR
 10
1.0
 20
0.0
 30
0.0
  9
$UCSYDIR
 10
0.0
 20
1.0
 30
0.0
  9
$UCSORTHOREF
  2

  9
$UCSORTHOVIEW
 70
     0
  9
$UCSORGTOP
 10
0.0
 20
0.0
 30
0.0
  9
$UCSORGBOTTOM
 10
0.0
 20
0.0
 30
0.0
  9
$UCSORGLEFT
 10
0.0
 20
0.0
 30
0.0
  9
$UCSORGRIGHT
 10
0.0
 20
0.0
 30
0.0
  9
$UCSORGFRONT
 10
0.0
 20
0.0
 30
0.0
  9
$UCSORGBACK
 10
0.0
 20
0.0
 30
0.0
  9
$PUCSBASE
  2

  9
$PUCSNAME
  2

  9
$PUCSORG
 10
0.0
 20
0.0
 30
0.0
  9
$PUCSXDIR
 10
1.0
 20
0.0
 30
0.0
  9
$PUCSYDIR
 10
0.0
 20
1.0
 30
0.0
  9
$PUCSORTHOREF
  2

  9
$PUCSORTHOVIEW
 70
     0
  9
$PUCSORGTOP
 10
0.0
 20
0.0
 30
0.0
  9
$PUCSORGBOTTOM
 10
0.0
 20
0.0
 30
0.0
  9
$PUCSORGLEFT
 10
0.0
 20
0.0
 30
0.0
  9
$PUCSORGRIGHT
 10
0.0
 20
0.0
 30
0.0
  9
$PUCSORGFRONT
 10
0.0
 20
0.0
 30
0.0
  9
$PUCSORGBACK
 10
0.0
 20
0.0
 30
0.0
  9
$USERI1
 70
     0
  9
$USERI2
 70
     0
  9
$USERI3
 70
     0
  9
$USERI4
 70
     0
  9
$USERI5
 70
     0
  9
$USERR1
 40
0.0
  9
$USERR2
 40
0.0
  9
$USERR3
 40
0.0
  9
$USERR4
 40
0.0
  9
$USERR5
 40
0.0
  9
$WORLDVIEW
 70
     1
  9
$SHADEDGE
 70
     3
  9
$SHADEDIF
 70
    70
  9
$TILEMODE
 70
     1
  9
$MAXACTVP
 70
    64
  9
$PINSBASE
 10
0.0
 20
0.0
 30
0.0
  9
$PLIMCHECK
 70
     0
  9
$PEXTMIN
 10
1.000000000000000E+20
 20
1.000000000000000E+20
 30
1.000000000000000E+20
  9
$PEXTMAX
 10
-1.000000000000000E+20
 20
-1.000000000000000E+20
 30
-1.000000000000000E+20
  9
$PLIMMIN
 10
0.0
 20
0.0
  9
$PLIMMAX
 10
12.0
 20
9.0
  9
$UNITMODE
 70
     0
  9
$VISRETAIN
 70
     1
  9
$PLINEGEN
 70
     0
  9
$PSLTSCALE
 70
     1
  9
$TREEDEPTH
 70
  3020
  9
$CMLSTYLE
  2
Standard
  9
$CMLJUST
 70
     0
  9
$CMLSCALE
 40
1.0
  9
$PROXYGRAPHICS
 70
     1
  9
$MEASUREMENT
 70
     0
  9
$CELWEIGHT
370
    -1
  9
$ENDCAPS
280
     0
  9
$JOINSTYLE
280
     0
  9
$LWDISPLAY
290
     0
  9
$INSUNITS
 70
     1
  9
$HYPERLINKBASE
  1

  9
$STYLESHEET
  1

  9
$XEDIT
290
     1
  9
$CEPSNTYPE
380
     0
  9
$PSTYLEMODE
290
     1
  9
$FINGERPRINTGUID
  2
{DFF80A1B-FD1C-4DBD-B02E-7F9E0ED1E7F9}
  9
$VERSIONGUID
  2
{FAEB1C32-E019-11D5-929B-00C0DF256EC4}
  9
$EXTNAMES
290
     1
  9
$PSVPSCALE
 40
0.0
  9
$OLESTARTUP
290
     0
  9
$SORTENTS
280
   127
  9
$INDEXCTL
280
     0
  9
$HIDETEXT
280
     1
  9
$XCLIPFRAME
290
     0
  9
$HALOGAP
280
     0
  9
$OBSCOLOR
 70
   257
  9
$OBSLTYPE
280
     0
  9
$INTERSECTIONDISPLAY
280
     0
  9
$INTERSECTIONCOLOR
 70
   257
  9
$DIMASSOC
280
     2
  9
$PROJECTNAME
  1

  9
$CAMERADISPLAY
290
     0
  9
$LENSLENGTH
 40
50.0
  9
$CAMERAHEIGHT
 40
0.0
  9
$STEPSPERSEC
 40
2.0
  9
$STEPSIZE
 40
6.0
  9
$3DDWFPREC
 40
2.0
  9
$PSOLWIDTH
 40
0.25
  9
$PSOLHEIGHT
 40
4.0
  9
$LOFTANG1
 40
1.570796326794897
  9
$LOFTANG2
 40
1.570796326794897
  9
$LOFTMAG1
 40
0.0
  9
$LOFTMAG2
 40
0.0
  9
$LOFTPARAM
 70
     7
  9
$LOFTNORMALS
280
     1
  9
$LATITUDE
 40
37.795
  9
$LONGITUDE
 40
-122.394
  9
$NORTHDIRECTION
 40
0.0
  9
$TIMEZONE
 70
 -8000
  9
$LIGHTGLYPHDISPLAY
280
     1
  9
$TILEMODELIGHTSYNCH
280
     1
  9
$SOLIDHIST
280
     1
  9
$SHOWHIST
280
     1
  9
$DWFFRAME
280
     2
  9
$DGNFRAME
280
     2
  9
$REALWORLDSCALE
290
     1
  9
$INTERFERECOLOR
 62
   256
  9
$CSHADOW
280
     0
  9
$SHADOWPLANELOCATION
 40
0.0
  0
ENDSEC
  0
SECTION
  2
CLASSES
  0
CLASS
  1
ACDBDICTIONARYWDFLT
  2
AcDbDictionaryWithDefault
  3
ObjectDBX Classes
 90
        0
 91
        3
280
     0
281
     0
  0
CLASS
  1
VISUALSTYLE
  2
AcDbVisualStyle
  3
ObjectDBX Classes
 90
     4095
 91
        3
280
     0
281
     0
  0
CLASS
  1
SCALE
  2
AcDbScale
  3
ObjectDBX Classes
 90
     1153
 91
        3
280
     0
281
     0
  0
ENDSEC
  0
SECTION
  2
TABLES
  0
TABLE
  2
VPORT
  5
8
330
0
100
AcDbSymbolTable
 70
     1
  0
VPORT
  5
29
330
8
100
AcDbSymbolTableRecord
100
AcDbViewportTableRecord
  2
*Active
 70
     0
 10
0.0
 20
0.0
 11
1.0
 21
1.0
 12
10.42990654205607
 22
4.5
 13
0.0
 23
0.0
 14
0.5
 24
0.5
 15
0.5
 25
0.5
 16
0.0
 26
0.0
 36
1.0
 17
0.0
 27
0.0
 37
0.0
 40
9.0
 41
1.972972972850329
 42
50.0
 43
0.0
 44
0.0
 50
0.0
 51
0.0
 71
     0
 72
   100
 73
     1
 74
     3
 75
     0
 76
     0
 77
     0
 78
     0
281
     0
 65
     1
110
0.0
120
0.0
130
0.0
111
1.0
121
0.0
131
0.0
112
0.0
122
1.0
132
0.0
 79
     0
146
0.0
 60
     3
 61
     5
292
     1
282
     1
141
0.0
142
0.0
 63
   256
  0
ENDTAB
  0
TABLE
  2
LTYPE
  5
5
330
0
100
AcDbSymbolTable
 70
     1
  0
LTYPE
  5
14
330
5
100
AcDbSymbolTableRecord
100
AcDbLinetypeTableRecord
  2
ByBlock
 70
     0
  3

 72
    65
 73
     0
 40
0.0
  0
LTYPE
  5
15
330
5
100
AcDbSymbolTableRecord
100
AcDbLinetypeTableRecord
  2
ByLayer
 70
     0
  3

 72
    65
 73
     0
 40
0.0
  0
LTYPE
  5
16
330
5
100
AcDbSymbolTableRecord
100
AcDbLinetypeTableRecord
  2
Continuous
 70
     0
  3
Solid line
 72
    65
 73
     0
 40
0.0
  0
ENDTAB
  0
TABLE
  2
LAYER
  5
2
330
0
100
AcDbSymbolTable
 70
     2
  0
LAYER
  5
10
330
2
100
AcDbSymbolTableRecord
100
AcDbLayerTableRecord
  2
0
 70
     0
 62
     7
  6
Continuous
370
    -3
390
F
347
0
  0
LAYER
  5
5E
330
2
100
AcDbSymbolTableRecord
100
AcDbLayerTableRecord
  2
Warstwa 1
 70
     0
 62
     7
  6
Continuous
370
    -3
390
F
347
0
  0
ENDTAB
  0
TABLE
  2
STYLE
  5
3
330
0
100
AcDbSymbolTable
 70
     1
  0
STYLE
  5
11
330
3
100
AcDbSymbolTableRecord
100
AcDbTextStyleTableRecord
  2
Standard
 70
     0
 40
0.0
 41
1.0
 50
0.0
 71
     0
 42
0.2
  3
txt
  4

  0
ENDTAB
  0
TABLE
  2
VIEW
  5
6
330
0
100
AcDbSymbolTable
 70
     0
  0
ENDTAB
  0
TABLE
  2
UCS
  5
7
330
0
100
AcDbSymbolTable
 70
     0
  0
ENDTAB
  0
TABLE
  2
APPID
  5
9
330
0
100
AcDbSymbolTable
 70
     2
  0
APPID
  5
12
330
9
100
AcDbSymbolTableRecord
100
AcDbRegAppTableRecord
  2
ACAD
 70
     0
  0
APPID
  5
5D
330
9
100
AcDbSymbolTableRecord
100
AcDbRegAppTableRecord
  2
ODA
 70
     0
  0
ENDTAB
  0
TABLE
  2
DIMSTYLE
  5
A
330
0
100
AcDbSymbolTable
 70
     1
100
AcDbDimStyleTable
  0
DIMSTYLE
105
27
330
A
100
AcDbSymbolTableRecord
100
AcDbDimStyleTableRecord
  2
Standard
 70
     0
340
11
  0
ENDTAB
  0
TABLE
  2
BLOCK_RECORD
  5
1
330
0
100
AcDbSymbolTable
 70
     1
  0
BLOCK_RECORD
  5
1F
330
1
100
AcDbSymbolTableRecord
100
AcDbBlockTableRecord
  2
*Model_Space
340
22
 70
     0
280
     1
281
     0
  0
BLOCK_RECORD
  5
1B
330
1
100
AcDbSymbolTableRecord
100
AcDbBlockTableRecord
  2
*Paper_Space
340
1E
 70
     0
280
     1
281
     0
  0
BLOCK_RECORD
  5
23
330
1
100
AcDbSymbolTableRecord
100
AcDbBlockTableRecord
  2
*Paper_Space0
340
26
 70
     0
280
     1
281
     0
  0
ENDTAB
  0
ENDSEC
  0
SECTION
  2
BLOCKS
  0
BLOCK
  5
20
330
1F
100
AcDbEntity
  8
0
100
AcDbBlockBegin
  2
*Model_Space
 70
     0
 10
0.0
 20
0.0
 30
0.0
  3
*Model_Space
  1

  0
ENDBLK
  5
21
330
1F
100
AcDbEntity
  8
0
100
AcDbBlockEnd
  0
BLOCK
  5
1C
330
1B
100
AcDbEntity
 67
     1
  8
0
100
AcDbBlockBegin
  2
*Paper_Space
 70
     0
 10
0.0
 20
0.0
 30
0.0
  3
*Paper_Space
  1

  0
ENDBLK
  5
1D
330
1B
100
AcDbEntity
 67
     1
  8
0
100
AcDbBlockEnd
  0
BLOCK
  5
24
330
23
100
AcDbEntity
  8
0
100
AcDbBlockBegin
  2
*Paper_Space0
 70
     0
 10
0.0
 20
0.0
 30
0.0
  3
*Paper_Space0
  1

  0
ENDBLK
  5
25
330
23
100
AcDbEntity
  8
0
100
AcDbBlockEnd
  0
ENDSEC
  0
SECTION
  2
ENTITIES
  0
SPLINE
  5
5F
330
1F
100
AcDbEntity
  8
Warstwa 1
 62
   250
100
AcDbSpline
210
0.0
220
0.0
230
1.0
 70
    11
 71
     3
 72
   176
 73
   172
 74
     0
 42
0.0000000001
 43
0.0000000001
 40
0.0
 40
0.0
 40
0.0
 40
0.0
 40
0.0232558139534884
 40
0.0232558139534884
 40
0.0232558139534884
 40
0.0232558139534884
 40
0.0465116279069767
 40
0.0465116279069767
 40
0.0465116279069767
 40
0.0465116279069767
 40
0.0697674418604651
 40
0.0697674418604651
 40
0.0697674418604651
 40
0.0697674418604651
 40
0.0930232558139535
 40
0.0930232558139535
 40
0.0930232558139535
 40
0.0930232558139535
 40
0.1162790697674419
 40
0.1162790697674419
 40
0.1162790697674419
 40
0.1162790697674419
 40
0.1395348837209302
 40
0.1395348837209302
 40
0.1395348837209302
 40
0.1395348837209302
 40
0.1627906976744186
 40
0.1627906976744186
 40
0.1627906976744186
 40
0.1627906976744186
 40
0.186046511627907
 40
0.186046511627907
 40
0.186046511627907
 40
0.186046511627907
 40
0.2093023255813953
 40
0.2093023255813953
 40
0.2093023255813953
 40
0.2093023255813953
 40
0.2325581395348837
 40
0.2325581395348837
 40
0.2325581395348837
 40
0.2325581395348837
 40
0.255813953488372
 40
0.255813953488372
 40
0.255813953488372
 40
0.255813953488372
 40
0.2790697674418604
 40
0.2790697674418604
 40
0.2790697674418604
 40
0.2790697674418604
 40
0.3023255813953488
 40
0.3023255813953488
 40
0.3023255813953488
 40
0.3023255813953488
 40
0.3255813953488371
 40
0.3255813953488371
 40
0.3255813953488371
 40
0.3255813953488371
 40
0.3488372093023255
 40
0.3488372093023255
 40
0.3488372093023255
 40
0.3488372093023255
 40
0.3720930232558138
 40
0.3720930232558138
 40
0.3720930232558138
 40
0.3720930232558138
 40
0.3953488372093022
 40
0.3953488372093022
 40
0.3953488372093022
 40
0.3953488372093022
 40
0.4186046511627906
 40
0.4186046511627906
 40
0.4186046511627906
 40
0.4186046511627906
 40
0.4418604651162789
 40
0.4418604651162789
 40
0.4418604651162789
 40
0.4418604651162789
 40
0.4651162790697673
 40
0.4651162790697673
 40
0.4651162790697673
 40
0.4651162790697673
 40
0.4883720930232556
 40
0.4883720930232556
 40
0.4883720930232556
 40
0.4883720930232556
 40
0.511627906976744
 40
0.511627906976744
 40
0.511627906976744
 40
0.511627906976744
 40
0.5348837209302324
 40
0.5348837209302324
 40
0.5348837209302324
 40
0.5348837209302324
 40
0.5581395348837208
 40
0.5581395348837208
 40
0.5581395348837208
 40
0.5581395348837208
 40
0.5813953488372092
 40
0.5813953488372092
 40
0.5813953488372092
 40
0.5813953488372092
 40
0.6046511627906976
 40
0.6046511627906976
 40
0.6046511627906976
 40
0.6046511627906976
 40
0.627906976744186
 40
0.627906976744186
 40
0.627906976744186
 40
0.627906976744186
 40
0.6511627906976745
 40
0.6511627906976745
 40
0.6511627906976745
 40
0.6511627906976745
 40
0.6744186046511629
 40
0.6744186046511629
 40
0.6744186046511629
 40
0.6744186046511629
 40
0.6976744186046513
 40
0.6976744186046513
 40
0.6976744186046513
 40
0.6976744186046513
 40
0.7209302325581397
 40
0.7209302325581397
 40
0.7209302325581397
 40
0.7209302325581397
 40
0.7441860465116281
 40
0.7441860465116281
 40
0.7441860465116281
 40
0.7441860465116281
 40
0.7674418604651165
 40
0.7674418604651165
 40
0.7674418604651165
 40
0.7674418604651165
 40
0.790697674418605
 40
0.790697674418605
 40
0.790697674418605
 40
0.790697674418605
 40
0.8139534883720934
 40
0.8139534883720934
 40
0.8139534883720934
 40
0.8139534883720934
 40
0.8372093023255818
 40
0.8372093023255818
 40
0.8372093023255818
 40
0.8372093023255818
 40
0.8604651162790702
 40
0.8604651162790702
 40
0.8604651162790702
 40
0.8604651162790702
 40
0.8837209302325586
 40
0.8837209302325586
 40
0.8837209302325586
 40
0.8837209302325586
 40
0.906976744186047
 40
0.906976744186047
 40
0.906976744186047
 40
0.906976744186047
 40
0.9302325581395354
 40
0.9302325581395354
 40
0.9302325581395354
 40
0.9302325581395354
 40
0.9534883720930238
 40
0.9534883720930238
 40
0.9534883720930238
 40
0.9534883720930238
 40
0.9767441860465123
 40
0.9767441860465123
 40
0.9767441860465123
 40
0.9767441860465123
 40
1.0
 40
1.0
 40
1.0
 40
1.0
 10
2.977649606299213
 20
-2.43059842519685
 30
0.0
 10
2.975236220472441
 20
-2.43059842519685
 30
0.0
 10
2.97303937007874
 20
-2.431590551181102
 30
0.0
 10
2.97146062992126
 20
-2.433185039370079
 30
0.0
 10
2.97146062992126
 20
-2.433185039370079
 30
0.0
 10
2.969877952755906
 20
-2.434783464566929
 30
0.0
 10
2.968897637795275
 20
-2.437011811023622
 30
0.0
 10
2.968897637795275
 20
-2.43948031496063
 30
0.0
 10
2.968897637795275
 20
-2.43948031496063
 30
0.0
 10
2.968897637795275
 20
-2.490799212598425
 30
0.0
 10
2.948173228346457
 20
-2.537279527559055
 30
0.0
 10
2.914625984251968
 20
-2.570913385826772
 30
0.0
 10
2.914625984251968
 20
-2.570913385826772
 30
0.0
 10
2.881110236220473
 20
-2.604511811023622
 30
0.0
 10
2.834779527559055
 20
-2.625299212598425
 30
0.0
 10
2.78351968503937
 20
-2.625299212598425
 30
0.0
 10
2.78351968503937
 20
-2.625299212598425
 30
0.0
 10
2.704602362204724
 20
-2.625299212598425
 30
0.0
 10
2.633141732283465
 20
-2.657299212598425
 30
0.0
 10
2.581413385826772
 20
-2.709027559055118
 30
0.0
 10
2.581413385826772
 20
-2.709027559055118
 30
0.0
 10
2.529685039370079
 20
-2.760755905511811
 30
0.0
 10
2.497685039370079
 20
-2.832216535433071
 30
0.0
 10
2.497685039370079
 20
-2.911133858267716
 30
0.0
 10
2.497685039370079
 20
-2.911133858267716
 30
0.0
 10
2.497685039370079
 20
-2.962665354330709
 30
0.0
 10
2.476787401574803
 20
-3.009271653543307
 30
0.0
 10
2.443011811023622
 20
-3.042996062992126
 30
0.0
 10
2.443011811023622
 20
-3.042996062992126
 30
0.0
 10
2.409216535433071
 20
-3.076740157480315
 30
0.0
 10
2.362515748031496
 20
-3.097590551181102
 30
0.0
 10
2.310948818897638
 20
-3.097590551181102
 30
0.0
 10
2.310948818897638
 20
-3.097590551181102
 30
0.0
 10
2.310948818897638
 20
-3.097590551181102
 30
0.0
 10
2.309448818897638
 20
-3.097590551181102
 30
0.0
 10
2.309448818897638
 20
-3.097590551181102
 30
0.0
 10
2.309448818897638
 20
-3.097590551181102
 30
0.0
 10
2.309448818897638
 20
-3.097590551181102
 30
0.0
 10
2.309448818897638
 20
-3.09757874015748
 30
0.0
 10
2.309448818897638
 20
-3.09757874015748
 30
0.0
 10
2.309448818897638
 20
-3.09757874015748
 30
0.0
 10
2.309448818897638
 20
-3.09757874015748
 30
0.0
 10
-2.760696850393701
 20
-3.097622047244094
 30
0.0
 10
-2.760696850393701
 20
-3.097622047244094
 30
0.0
 10
-2.760696850393701
 20
-3.097622047244094
 30
0.0
 10
-2.760696850393701
 20
-3.097622047244094
 30
0.0
 10
-2.760696850393701
 20
-3.097633858267717
 30
0.0
 10
-2.760696850393701
 20
-3.097633858267717
 30
0.0
 10
-2.760696850393701
 20
-3.097633858267717
 30
0.0
 10
-2.806814960629921
 20
-3.097633858267717
 30
0.0
 10
-2.848586614173228
 20
-3.078933070866142
 30
0.0
 10
-2.878814960629921
 20
-3.048712598425197
 30
0.0
 10
-2.878814960629921
 20
-3.048712598425197
 30
0.0
 10
-2.909055118110236
 20
-3.018484251968504
 30
0.0
 10
-2.927763779527559
 20
-2.976724409448819
 30
0.0
 10
-2.927763779527559
 20
-2.930610236220472
 30
0.0
 10
-2.927763779527559
 20
-2.930610236220472
 30
0.0
 10
-2.927763779527559
 20
-2.856051181102362
 30
0.0
 10
-2.951925196850394
 20
-2.785929133858268
 30
0.0
 10
-2.993897637795276
 20
-2.729043307086614
 30
0.0
 10
-2.993897637795276
 20
-2.729043307086614
 30
0.0
 10
-3.035799212598425
 20
-2.672251968503937
 30
0.0
 10
-3.09548031496063
 20
-2.62861811023622
 30
0.0
 10
-3.16661811023622
 20
-2.606885826771653
 30
0.0
 10
-3.16661811023622
 20
-2.606885826771653
 30
0.0
 10
-3.16661811023622
 20
-2.606885826771653
 30
0.0
 10
-3.166822834645669
 20
-2.606814960629921
 30
0.0
 10
-3.166822834645669
 20
-2.606814960629921
 30
0.0
 10
-3.166822834645669
 20
-2.606814960629921
 30
0.0
 10
-3.203204724409449
 20
-2.593295275590551
 30
0.0
 10
-3.233472440944882
 20
-2.569157480314961
 30
0.0
 10
-3.254625984251969
 20
-2.538720472440945
 30
0.0
 10
-3.254625984251969
 20
-2.538720472440945
 30
0.0
 10
-3.275795275590551
 20
-2.508267716535433
 30
0.0
 10
-3.287870078740157
 20
-2.471484251968504
 30
0.0
 10
-3.287870078740157
 20
-2.432677165354331
 30
0.0
 10
-3.287870078740157
 20
-2.432677165354331
 30
0.0
 10
-3.287870078740157
 20
-2.432677165354331
 30
0.0
 10
-3.287870078740157
 20
2.307393700787402
 30
0.0
 10
-3.287870078740157
 20
2.307393700787402
 30
0.0
 10
-3.287870078740157
 20
2.307393700787402
 30
0.0
 10
-3.287870078740157
 20
2.346200787401575
 30
0.0
 10
-3.275795275590551
 20
2.382984251968504
 30
0.0
 10
-3.254625984251969
 20
2.413437007874016
 30
0.0
 10
-3.254625984251969
 20
2.413437007874016
 30
0.0
 10
-3.233472440944882
 20
2.443874015748031
 30
0.0
 10
-3.203204724409449
 20
2.468011811023622
 30
0.0
 10
-3.166822834645669
 20
2.481531496062992
 30
0.0
 10
-3.166822834645669
 20
2.481531496062992
 30
0.0
 10
-3.166822834645669
 20
2.481531496062992
 30
0.0
 10
-3.16661811023622
 20
2.481602362204725
 30
0.0
 10
-3.16661811023622
 20
2.481602362204725
 30
0.0
 10
-3.16661811023622
 20
2.481602362204725
 30
0.0
 10
-3.09548031496063
 20
2.503334645669292
 30
0.0
 10
-3.035799212598425
 20
2.546968503937008
 30
0.0
 10
-2.993897637795276
 20
2.603759842519685
 30
0.0
 10
-2.993897637795276
 20
2.603759842519685
 30
0.0
 10
-2.951925196850394
 20
2.660645669291338
 30
0.0
 10
-2.927763779527559
 20
2.730767716535433
 30
0.0
 10
-2.927763779527559
 20
2.805326771653543
 30
0.0
 10
-2.927763779527559
 20
2.805326771653543
 30
0.0
 10
-2.927763779527559
 20
2.85144094488189
 30
0.0
 10
-2.909055118110236
 20
2.893200787401575
 30
0.0
 10
-2.878814960629921
 20
2.923429133858268
 30
0.0
 10
-2.878814960629921
 20
2.923429133858268
 30
0.0
 10
-2.848586614173228
 20
2.953649606299213
 30
0.0
 10
-2.806814960629921
 20
2.972350393700788
 30
0.0
 10
-2.760696850393701
 20
2.972350393700788
 30
0.0
 10
-2.760696850393701
 20
2.972350393700788
 30
0.0
 10
-2.760696850393701
 20
2.972350393700788
 30
0.0
 10
-2.760696850393701
 20
2.972338582677165
 30
0.0
 10
-2.760696850393701
 20
2.972338582677165
 30
0.0
 10
-2.760696850393701
 20
2.972338582677165
 30
0.0
 10
-2.760696850393701
 20
2.972338582677165
 30
0.0
 10
2.310948818897638
 20
2.972307086614173
 30
0.0
 10
2.310948818897638
 20
2.972307086614173
 30
0.0
 10
2.310948818897638
 20
2.972307086614173
 30
0.0
 10
2.310948818897638
 20
2.972307086614173
 30
0.0
 10
2.310948818897638
 20
2.972318897637795
 30
0.0
 10
2.310948818897638
 20
2.972318897637795
 30
0.0
 10
2.310948818897638
 20
2.972318897637795
 30
0.0
 10
2.362515748031496
 20
2.972318897637795
 30
0.0
 10
2.409216535433071
 20
2.951468503937008
 30
0.0
 10
2.443011811023622
 20
2.917724409448819
 30
0.0
 10
2.443011811023622
 20
2.917724409448819
 30
0.0
 10
2.476787401574803
 20
2.884
 30
0.0
 10
2.497685039370079
 20
2.837393700787401
 30
0.0
 10
2.497685039370079
 20
2.785862204724409
 30
0.0
 10
2.497685039370079
 20
2.785862204724409
 30
0.0
 10
2.497685039370079
 20
2.706944881889764
 30
0.0
 10
2.529685039370079
 20
2.635484251968504
 30
0.0
 10
2.581413385826772
 20
2.583755905511811
 30
0.0
 10
2.581413385826772
 20
2.583755905511811
 30
0.0
 10
2.633141732283465
 20
2.532031496062992
 30
0.0
 10
2.704606299212598
 20
2.500027559055118
 30
0.0
 10
2.78351968503937
 20
2.500027559055118
 30
0.0
 10
2.78351968503937
 20
2.500027559055118
 30
0.0
 10
2.834779527559055
 20
2.500027559055118
 30
0.0
 10
2.881110236220473
 20
2.479240157480315
 30
0.0
 10
2.914625984251968
 20
2.445641732283465
 30
0.0
 10
2.914625984251968
 20
2.445641732283465
 30
0.0
 10
2.948173228346457
 20
2.412007874015748
 30
0.0
 10
2.968897637795275
 20
2.365527559055118
 30
0.0
 10
2.968897637795275
 20
2.314208661417323
 30
0.0
 10
2.968897637795275
 20
2.314208661417323
 30
0.0
 10
2.968897637795275
 20
2.311740157480315
 30
0.0
 10
2.969877952755906
 20
2.309511811023622
 30
0.0
 10
2.97146062992126
 20
2.307913385826772
 30
0.0
 10
2.97146062992126
 20
2.307913385826772
 30
0.0
 10
2.97303937007874
 20
2.306318897637795
 30
0.0
 10
2.975236220472441
 20
2.305326771653543
 30
0.0
 10
2.977649606299213
 20
2.305326771653543
 30
0.0
 10
2.977649606299213
 20
2.305326771653543
 30
0.0
 10
2.977649606299213
 20
2.305326771653543
 30
0.0
 10
2.981122047244094
 20
2.305326771653543
 30
0.0
 10
2.981122047244094
 20
2.305326771653543
 30
0.0
 10
2.981122047244094
 20
2.305326771653543
 30
0.0
 10
2.981122047244094
 20
2.305326771653543
 30
0.0
 10
2.981122047244094
 20
2.301854330708661
 30
0.0
 10
2.981122047244094
 20
2.301854330708661
 30
0.0
 10
2.981122047244094
 20
2.301854330708661
 30
0.0
 10
2.981122047244094
 20
2.301854330708661
 30
0.0
 10
2.981122047244094
 20
-2.427125984251969
 30
0.0
 10
2.981122047244094
 20
-2.427125984251969
 30
0.0
 10
2.981122047244094
 20
-2.427125984251969
 30
0.0
 10
2.981122047244094
 20
-2.427125984251969
 30
0.0
 10
2.981122047244094
 20
-2.43059842519685
 30
0.0
 10
2.981122047244094
 20
-2.43059842519685
 30
0.0
 10
2.981122047244094
 20
-2.43059842519685
 30
0.0
 10
2.981122047244094
 20
-2.43059842519685
 30
0.0
 10
2.977649606299213
 20
-2.43059842519685
 30
0.0
 10
2.977649606299213
 20
-2.43059842519685
 30
0.0
  0
SPLINE
  5
60
330
1F
100
AcDbEntity
  8
Warstwa 1
 62
   250
100
AcDbSpline
210
0.0
220
0.0
230
1.0
 70
    11
 71
     3
 72
   152
 73
   148
 74
     0
 42
0.0000000001
 43
0.0000000001
 40
0.0
 40
0.0
 40
0.0
 40
0.0
 40
0.027027027027027
 40
0.027027027027027
 40
0.027027027027027
 40
0.027027027027027
 40
0.0540540540540541
 40
0.0540540540540541
 40
0.0540540540540541
 40
0.0540540540540541
 40
0.0810810810810811
 40
0.0810810810810811
 40
0.0810810810810811
 40
0.0810810810810811
 40
0.1081081081081081
 40
0.1081081081081081
 40
0.1081081081081081
 40
0.1081081081081081
 40
0.1351351351351351
 40
0.1351351351351351
 40
0.1351351351351351
 40
0.1351351351351351
 40
0.1621621621621622
 40
0.1621621621621622
 40
0.1621621621621622
 40
0.1621621621621622
 40
0.1891891891891892
 40
0.1891891891891892
 40
0.1891891891891892
 40
0.1891891891891892
 40
0.2162162162162162
 40
0.2162162162162162
 40
0.2162162162162162
 40
0.2162162162162162
 40
0.2432432432432433
 40
0.2432432432432433
 40
0.2432432432432433
 40
0.2432432432432433
 40
0.2702702702702703
 40
0.2702702702702703
 40
0.2702702702702703
 40
0.2702702702702703
 40
0.2972972972972973
 40
0.2972972972972973
 40
0.2972972972972973
 40
0.2972972972972973
 40
0.3243243243243243
 40
0.3243243243243243
 40
0.3243243243243243
 40
0.3243243243243243
 40
0.3513513513513514
 40
0.3513513513513514
 40
0.3513513513513514
 40
0.3513513513513514
 40
0.3783783783783784
 40
0.3783783783783784
 40
0.3783783783783784
 40
0.3783783783783784
 40
0.4054054054054054
 40
0.4054054054054054
 40
0.4054054054054054
 40
0.4054054054054054
 40
0.4324324324324325
 40
0.4324324324324325
 40
0.4324324324324325
 40
0.4324324324324325
 40
0.4594594594594595
 40
0.4594594594594595
 40
0.4594594594594595
 40
0.4594594594594595
 40
0.4864864864864865
 40
0.4864864864864865
 40
0.4864864864864865
 40
0.4864864864864865
 40
0.5135135135135136
 40
0.5135135135135136
 40
0.5135135135135136
 40
0.5135135135135136
 40
0.5405405405405406
 40
0.5405405405405406
 40
0.5405405405405406
 40
0.5405405405405406
 40
0.5675675675675675
 40
0.5675675675675675
 40
0.5675675675675675
 40
0.5675675675675675
 40
0.5945945945945945
 40
0.5945945945945945
 40
0.5945945945945945
 40
0.5945945945945945
 40
0.6216216216216215
 40
0.6216216216216215
 40
0.6216216216216215
 40
0.6216216216216215
 40
0.6486486486486485
 40
0.6486486486486485
 40
0.6486486486486485
 40
0.6486486486486485
 40
0.6756756756756754
 40
0.6756756756756754
 40
0.6756756756756754
 40
0.6756756756756754
 40
0.7027027027027024
 40
0.7027027027027024
 40
0.7027027027027024
 40
0.7027027027027024
 40
0.7297297297297294
 40
0.7297297297297294
 40
0.7297297297297294
 40
0.7297297297297294
 40
0.7567567567567564
 40
0.7567567567567564
 40
0.7567567567567564
 40
0.7567567567567564
 40
0.7837837837837833
 40
0.7837837837837833
 40
0.7837837837837833
 40
0.7837837837837833
 40
0.8108108108108103
 40
0.8108108108108103
 40
0.8108108108108103
 40
0.8108108108108103
 40
0.8378378378378373
 40
0.8378378378378373
 40
0.8378378378378373
 40
0.8378378378378373
 40
0.8648648648648642
 40
0.8648648648648642
 40
0.8648648648648642
 40
0.8648648648648642
 40
0.8918918918918912
 40
0.8918918918918912
 40
0.8918918918918912
 40
0.8918918918918912
 40
0.9189189189189182
 40
0.9189189189189182
 40
0.9189189189189182
 40
0.9189189189189182
 40
0.9459459459459452
 40
0.9459459459459452
 40
0.9459459459459452
 40
0.9459459459459452
 40
0.9729729729729721
 40
0.9729729729729721
 40
0.9729729729729721
 40
0.9729729729729721
 40
1.0
 40
1.0
 40
1.0
 40
1.0
 10
2.966547244094488
 20
-2.428303149606299
 30
0.0
 10
2.968602362204725
 20
-2.426224409448819
 30
0.0
 10
2.971236220472441
 20
-2.424716535433071
 30
0.0
 10
2.974177165354331
 20
-2.424043307086614
 30
0.0
 10
2.974177165354331
 20
-2.424043307086614
 30
0.0
 10
2.974177165354331
 20
-2.424043307086614
 30
0.0
 10
2.974177165354331
 20
2.298771653543307
 30
0.0
 10
2.974177165354331
 20
2.298771653543307
 30
0.0
 10
2.974177165354331
 20
2.298771653543307
 30
0.0
 10
2.971236220472441
 20
2.299444881889764
 30
0.0
 10
2.968602362204725
 20
2.300952755905512
 30
0.0
 10
2.966547244094488
 20
2.303031496062992
 30
0.0
 10
2.966547244094488
 20
2.303031496062992
 30
0.0
 10
2.963708661417323
 20
2.30590157480315
 30
0.0
 10
2.961952755905512
 20
2.309854330708661
 30
0.0
 10
2.961952755905512
 20
2.314208661417323
 30
0.0
 10
2.961952755905512
 20
2.314208661417323
 30
0.0
 10
2.961952755905512
 20
2.363629921259843
 30
0.0
 10
2.942007874015748
 20
2.408381889763779
 30
0.0
 10
2.909712598425197
 20
2.440759842519685
 30
0.0
 10
2.909712598425197
 20
2.440759842519685
 30
0.0
 10
2.877464566929134
 20
2.473082677165354
 30
0.0
 10
2.832874015748032
 20
2.493082677165354
 30
0.0
 10
2.78351968503937
 20
2.493082677165354
 30
0.0
 10
2.78351968503937
 20
2.493082677165354
 30
0.0
 10
2.702681102362205
 20
2.493082677165354
 30
0.0
 10
2.629484251968504
 20
2.525862204724409
 30
0.0
 10
2.5765
 20
2.578842519685039
 30
0.0
 10
2.5765
 20
2.578842519685039
 30
0.0
 10
2.523515748031496
 20
2.631826771653544
 30
0.0
 10
2.490740157480315
 20
2.705027559055118
 30
0.0
 10
2.490740157480315
 20
2.785862204724409
 30
0.0
 10
2.490740157480315
 20
2.785862204724409
 30
0.0
 10
2.490740157480315
 20
2.835488188976378
 30
0.0
 10
2.470633858267717
 20
2.880358267716535
 30
0.0
 10
2.438129921259843
 20
2.912811023622047
 30
0.0
 10
2.438129921259843
 20
2.912811023622047
 30
0.0
 10
2.405594488188977
 20
2.945295275590551
 30
0.0
 10
2.360622047244095
 20
2.965374015748031
 30
0.0
 10
2.310948818897638
 20
2.965374015748031
 30
0.0
 10
2.310948818897638
 20
2.965374015748031
 30
0.0
 10
2.310948818897638
 20
2.965374015748031
 30
0.0
 10
2.310948818897638
 20
2.965385826771654
 30
0.0
 10
2.310948818897638
 20
2.965385826771654
 30
0.0
 10
2.310948818897638
 20
2.965385826771654
 30
0.0
 10
2.310948818897638
 20
2.965385826771654
 30
0.0
 10
-2.760696850393701
 20
2.965417322834646
 30
0.0
 10
-2.760696850393701
 20
2.965417322834646
 30
0.0
 10
-2.760696850393701
 20
2.965417322834646
 30
0.0
 10
-2.760696850393701
 20
2.965417322834646
 30
0.0
 10
-2.760696850393701
 20
2.965405511811023
 30
0.0
 10
-2.760696850393701
 20
2.965405511811023
 30
0.0
 10
-2.760696850393701
 20
2.965405511811023
 30
0.0
 10
-2.804913385826772
 20
2.965405511811023
 30
0.0
 10
-2.844956692913386
 20
2.947484251968504
 30
0.0
 10
-2.873933070866142
 20
2.918515748031496
 30
0.0
 10
-2.873933070866142
 20
2.918515748031496
 30
0.0
 10
-2.902897637795276
 20
2.889562992125984
 30
0.0
 10
-2.920818897637795
 20
2.84953937007874
 30
0.0
 10
-2.920818897637795
 20
2.805326771653543
 30
0.0
 10
-2.920818897637795
 20
2.805326771653543
 30
0.0
 10
-2.920818897637795
 20
2.729291338582677
 30
0.0
 10
-2.945484251968504
 20
2.657740157480315
 30
0.0
 10
-2.988338582677165
 20
2.599665354330709
 30
0.0
 10
-2.988338582677165
 20
2.599665354330709
 30
0.0
 10
-3.031090551181102
 20
2.541724409448819
 30
0.0
 10
-3.091964566929134
 20
2.497200787401575
 30
0.0
 10
-3.164515748031496
 20
2.475011811023622
 30
0.0
 10
-3.164515748031496
 20
2.475011811023622
 30
0.0
 10
-3.199464566929134
 20
2.461996062992126
 30
0.0
 10
-3.228562992125984
 20
2.438771653543307
 30
0.0
 10
-3.248925196850394
 20
2.409476377952756
 30
0.0
 10
-3.248925196850394
 20
2.409476377952756
 30
0.0
 10
-3.269299212598425
 20
2.380165354330709
 30
0.0
 10
-3.280925196850394
 20
2.344755905511811
 30
0.0
 10
-3.280925196850394
 20
2.307393700787402
 30
0.0
 10
-3.280925196850394
 20
2.307393700787402
 30
0.0
 10
-3.280925196850394
 20
2.307393700787402
 30
0.0
 10
-3.280925196850394
 20
-2.432677165354331
 30
0.0
 10
-3.280925196850394
 20
-2.432677165354331
 30
0.0
 10
-3.280925196850394
 20
-2.432677165354331
 30
0.0
 10
-3.280925196850394
 20
-2.47003937007874
 30
0.0
 10
-3.269299212598425
 20
-2.505448818897638
 30
0.0
 10
-3.248925196850394
 20
-2.534759842519685
 30
0.0
 10
-3.248925196850394
 20
-2.534759842519685
 30
0.0
 10
-3.228562992125984
 20
-2.564055118110236
 30
0.0
 10
-3.199464566929134
 20
-2.587279527559055
 30
0.0
 10
-3.164515748031496
 20
-2.600295275590551
 30
0.0
 10
-3.164515748031496
 20
-2.600295275590551
 30
0.0
 10
-3.091964566929134
 20
-2.622484251968504
 30
0.0
 10
-3.031090551181102
 20
-2.667007874015748
 30
0.0
 10
-2.988338582677165
 20
-2.724948818897638
 30
0.0
 10
-2.988338582677165
 20
-2.724948818897638
 30
0.0
 10
-2.945484251968504
 20
-2.783023622047244
 30
0.0
 10
-2.920818897637795
 20
-2.854574803149606
 30
0.0
 10
-2.920818897637795
 20
-2.930610236220472
 30
0.0
 10
-2.920818897637795
 20
-2.930610236220472
 30
0.0
 10
-2.920818897637795
 20
-2.974822834645669
 30
0.0
 10
-2.902897637795276
 20
-3.014846456692913
 30
0.0
 10
-2.873933070866142
 20
-3.043799212598425
 30
0.0
 10
-2.873933070866142
 20
-3.043799212598425
 30
0.0
 10
-2.844956692913386
 20
-3.072767716535433
 30
0.0
 10
-2.804913385826772
 20
-3.090688976377953
 30
0.0
 10
-2.760696850393701
 20
-3.090688976377953
 30
0.0
 10
-2.760696850393701
 20
-3.090688976377953
 30
0.0
 10
-2.760696850393701
 20
-3.090688976377953
 30
0.0
 10
-2.760696850393701
 20
-3.090700787401575
 30
0.0
 10
-2.760696850393701
 20
-3.090700787401575
 30
0.0
 10
-2.760696850393701
 20
-3.090700787401575
 30
0.0
 10
-2.760696850393701
 20
-3.090700787401575
 30
0.0
 10
2.309448818897638
 20
-3.09065748031496
 30
0.0
 10
2.309448818897638
 20
-3.09065748031496
 30
0.0
 10
2.309448818897638
 20
-3.09065748031496
 30
0.0
 10
2.309448818897638
 20
-3.09065748031496
 30
0.0
 10
2.309448818897638
 20
-3.090645669291339
 30
0.0
 10
2.309448818897638
 20
-3.090645669291339
 30
0.0
 10
2.309448818897638
 20
-3.090645669291339
 30
0.0
 10
2.309448818897638
 20
-3.090645669291339
 30
0.0
 10
2.310948818897638
 20
-3.090645669291339
 30
0.0
 10
2.310948818897638
 20
-3.090645669291339
 30
0.0
 10
2.310948818897638
 20
-3.090645669291339
 30
0.0
 10
2.360622047244095
 20
-3.090645669291339
 30
0.0
 10
2.405594488188977
 20
-3.070566929133858
 30
0.0
 10
2.438129921259843
 20
-3.038082677165354
 30
0.0
 10
2.438129921259843
 20
-3.038082677165354
 30
0.0
 10
2.470633858267717
 20
-3.005629921259843
 30
0.0
 10
2.490740157480315
 20
-2.960759842519685
 30
0.0
 10
2.490740157480315
 20
-2.911133858267716
 30
0.0
 10
2.490740157480315
 20
-2.911133858267716
 30
0.0
 10
2.490740157480315
 20
-2.830299212598425
 30
0.0
 10
2.523515748031496
 20
-2.75709842519685
 30
0.0
 10
2.5765
 20
-2.704114173228346
 30
0.0
 10
2.5765
 20
-2.704114173228346
 30
0.0
 10
2.629484251968504
 20
-2.651129921259843
 30
0.0
 10
2.702685039370079
 20
-2.618354330708661
 30
0.0
 10
2.78351968503937
 20
-2.618354330708661
 30
0.0
 10
2.78351968503937
 20
-2.618354330708661
 30
0.0
 10
2.832874015748032
 20
-2.618354330708661
 30
0.0
 10
2.877464566929134
 20
-2.598354330708661
 30
0.0
 10
2.909712598425197
 20
-2.566031496062992
 30
0.0
 10
2.909712598425197
 20
-2.566031496062992
 30
0.0
 10
2.942007874015748
 20
-2.533653543307087
 30
0.0
 10
2.961952755905512
 20
-2.48890157480315
 30
0.0
 10
2.961952755905512
 20
-2.43948031496063
 30
0.0
 10
2.961952755905512
 20
-2.43948031496063
 30
0.0
 10
2.961952755905512
 20
-2.435125984251969
 30
0.0
 10
2.963708661417323
 20
-2.431173228346457
 30
0.0
 10
2.966547244094488
 20
-2.428303149606299
 30
0.0
  0
SPLINE
  5
61
330
1F
100
AcDbEntity
  8
Warstwa 1
 62
   250
100
AcDbSpline
210
0.0
220
0.0
230
1.0
 70
    11
 71
     3
 72
    48
 73
    44
 74
     0
 42
0.0000000001
 43
0.0000000001
 40
0.0
 40
0.0
 40
0.0
 40
0.0
 40
0.0909090909090909
 40
0.0909090909090909
 40
0.0909090909090909
 40
0.0909090909090909
 40
0.1818181818181818
 40
0.1818181818181818
 40
0.1818181818181818
 40
0.1818181818181818
 40
0.2727272727272727
 40
0.2727272727272727
 40
0.2727272727272727
 40
0.2727272727272727
 40
0.3636363636363636
 40
0.3636363636363636
 40
0.3636363636363636
 40
0.3636363636363636
 40
0.4545454545454546
 40
0.4545454545454546
 40
0.4545454545454546
 40
0.4545454545454546
 40
0.5454545454545455
 40
0.5454545454545455
 40
0.5454545454545455
 40
0.5454545454545455
 40
0.6363636363636365
 40
0.6363636363636365
 40
0.6363636363636365
 40
0.6363636363636365
 40
0.7272727272727274
 40
0.7272727272727274
 40
0.7272727272727274
 40
0.7272727272727274
 40
0.8181818181818183
 40
0.8181818181818183
 40
0.8181818181818183
 40
0.8181818181818183
 40
0.9090909090909093
 40
0.9090909090909093
 40
0.9090909090909093
 40
0.9090909090909093
 40
1.0
 40
1.0
 40
1.0
 40
1.0
 10
-3.008803149606299
 20
2.40142125984252
 30
0.0
 10
-2.980665354330708
 20
2.40142125984252
 30
0.0
 10
-2.955192913385827
 20
2.390011811023622
 30
0.0
 10
-2.936755905511811
 20
2.371574803149606
 30
0.0
 10
-2.936755905511811
 20
2.371574803149606
 30
0.0
 10
-2.936755905511811
 20
2.371574803149606
 30
0.0
 10
-2.936763779527559
 20
2.371566929133858
 30
0.0
 10
-2.936763779527559
 20
2.371566929133858
 30
0.0
 10
-2.936763779527559
 20
2.371566929133858
 30
0.0
 10
-2.918318897637795
 20
2.353122047244094
 30
0.0
 10
-2.906909448818898
 20
2.327645669291339
 30
0.0
 10
-2.906909448818898
 20
2.299523622047244
 30
0.0
 10
-2.906909448818898
 20
2.299523622047244
 30
0.0
 10
-2.906909448818898
 20
2.271385826771653
 30
0.0
 10
-2.918318897637795
 20
2.245909448818898
 30
0.0
 10
-2.936755905511811
 20
2.227472440944882
 30
0.0
 10
-2.936755905511811
 20
2.227472440944882
 30
0.0
 10
-2.955192913385827
 20
2.209035433070866
 30
0.0
 10
-2.980669291338583
 20
2.197625984251968
 30
0.0
 10
-3.008803149606299
 20
2.197625984251968
 30
0.0
 10
-3.008803149606299
 20
2.197625984251968
 30
0.0
 10
-3.036929133858268
 20
2.197625984251968
 30
0.0
 10
-3.062401574803149
 20
2.209035433070866
 30
0.0
 10
-3.08084251968504
 20
2.227472440944882
 30
0.0
 10
-3.08084251968504
 20
2.227472440944882
 30
0.0
 10
-3.08084251968504
 20
2.227472440944882
 30
0.0
 10
-3.080858267716535
 20
2.227472440944882
 30
0.0
 10
-3.080858267716535
 20
2.227472440944882
 30
0.0
 10
-3.080858267716535
 20
2.227472440944882
 30
0.0
 10
-3.099295275590551
 20
2.245909448818898
 30
0.0
 10
-3.110704724409449
 20
2.271385826771653
 30
0.0
 10
-3.110704724409449
 20
2.299523622047244
 30
0.0
 10
-3.110704724409449
 20
2.299523622047244
 30
0.0
 10
-3.110704724409449
 20
2.327661417322834
 30
0.0
 10
-3.099295275590551
 20
2.353137795275591
 30
0.0
 10
-3.080858267716535
 20
2.371574803149606
 30
0.0
 10
-3.080858267716535
 20
2.371574803149606
 30
0.0
 10
-3.080858267716535
 20
2.371574803149606
 30
0.0
 10
-3.08084251968504
 20
2.371574803149606
 30
0.0
 10
-3.08084251968504
 20
2.371574803149606
 30
0.0
 10
-3.08084251968504
 20
2.371574803149606
 30
0.0
 10
-3.062401574803149
 20
2.390011811023622
 30
0.0
 10
-3.036929133858268
 20
2.40142125984252
 30
0.0
 10
-3.008803149606299
 20
2.40142125984252
 30
0.0
  0
SPLINE
  5
62
330
1F
100
AcDbEntity
  8
Warstwa 1
 62
   250
100
AcDbSpline
210
0.0
220
0.0
230
1.0
 70
    11
 71
     3
 72
    48
 73
    44
 74
     0
 42
0.0000000001
 43
0.0000000001
 40
0.0
 40
0.0
 40
0.0
 40
0.0
 40
0.0909090909090909
 40
0.0909090909090909
 40
0.0909090909090909
 40
0.0909090909090909
 40
0.1818181818181818
 40
0.1818181818181818
 40
0.1818181818181818
 40
0.1818181818181818
 40
0.2727272727272727
 40
0.2727272727272727
 40
0.2727272727272727
 40
0.2727272727272727
 40
0.3636363636363636
 40
0.3636363636363636
 40
0.3636363636363636
 40
0.3636363636363636
 40
0.4545454545454546
 40
0.4545454545454546
 40
0.4545454545454546
 40
0.4545454545454546
 40
0.5454545454545455
 40
0.5454545454545455
 40
0.5454545454545455
 40
0.5454545454545455
 40
0.6363636363636365
 40
0.6363636363636365
 40
0.6363636363636365
 40
0.6363636363636365
 40
0.7272727272727274
 40
0.7272727272727274
 40
0.7272727272727274
 40
0.7272727272727274
 40
0.8181818181818183
 40
0.8181818181818183
 40
0.8181818181818183
 40
0.8181818181818183
 40
0.9090909090909093
 40
0.9090909090909093
 40
0.9090909090909093
 40
0.9090909090909093
 40
1.0
 40
1.0
 40
1.0
 40
1.0
 10
-2.941669291338583
 20
2.366661417322835
 30
0.0
 10
-2.958850393700788
 20
2.383842519685039
 30
0.0
 10
-2.982590551181102
 20
2.394476377952756
 30
0.0
 10
-3.008803149606299
 20
2.394476377952756
 30
0.0
 10
-3.008803149606299
 20
2.394476377952756
 30
0.0
 10
-3.035023622047244
 20
2.394476377952756
 30
0.0
 10
-3.058767716535433
 20
2.383846456692913
 30
0.0
 10
-3.075952755905512
 20
2.366669291338583
 30
0.0
 10
-3.075952755905512
 20
2.366669291338583
 30
0.0
 10
-3.075952755905512
 20
2.366669291338583
 30
0.0
 10
-3.075944881889764
 20
2.366661417322835
 30
0.0
 10
-3.075944881889764
 20
2.366661417322835
 30
0.0
 10
-3.075944881889764
 20
2.366661417322835
 30
0.0
 10
-3.093125984251968
 20
2.34948031496063
 30
0.0
 10
-3.103759842519685
 20
2.325736220472441
 30
0.0
 10
-3.103759842519685
 20
2.299523622047244
 30
0.0
 10
-3.103759842519685
 20
2.299523622047244
 30
0.0
 10
-3.103759842519685
 20
2.273311023622047
 30
0.0
 10
-3.093125984251968
 20
2.249566929133858
 30
0.0
 10
-3.075944881889764
 20
2.232385826771654
 30
0.0
 10
-3.075944881889764
 20
2.232385826771654
 30
0.0
 10
-3.075944881889764
 20
2.232385826771654
 30
0.0
 10
-3.075952755905512
 20
2.232377952755905
 30
0.0
 10
-3.075952755905512
 20
2.232377952755905
 30
0.0
 10
-3.075952755905512
 20
2.232377952755905
 30
0.0
 10
-3.058767716535433
 20
2.215200787401575
 30
0.0
 10
-3.035023622047244
 20
2.204570866141732
 30
0.0
 10
-3.008803149606299
 20
2.204570866141732
 30
0.0
 10
-3.008803149606299
 20
2.204570866141732
 30
0.0
 10
-2.982590551181102
 20
2.204570866141732
 30
0.0
 10
-2.958850393700788
 20
2.215204724409449
 30
0.0
 10
-2.941669291338583
 20
2.232385826771654
 30
0.0
 10
-2.941669291338583
 20
2.232385826771654
 30
0.0
 10
-2.924488188976378
 20
2.249566929133858
 30
0.0
 10
-2.913854330708662
 20
2.273311023622047
 30
0.0
 10
-2.913854330708662
 20
2.299523622047244
 30
0.0
 10
-2.913854330708662
 20
2.299523622047244
 30
0.0
 10
-2.913854330708662
 20
2.325748031496063
 30
0.0
 10
-2.92448031496063
 20
2.349492125984252
 30
0.0
 10
-2.941653543307087
 20
2.366661417322835
 30
0.0
 10
-2.941653543307087
 20
2.366661417322835
 30
0.0
 10
-2.941653543307087
 20
2.366661417322835
 30
0.0
 10
-2.941669291338583
 20
2.366661417322835
 30
0.0
 10
-2.941669291338583
 20
2.366661417322835
 30
0.0
  0
SPLINE
  5
63
330
1F
100
AcDbEntity
  8
Warstwa 1
 62
   250
100
AcDbSpline
210
0.0
220
0.0
230
1.0
 70
    11
 71
     3
 72
    44
 73
    40
 74
     0
 42
0.0000000001
 43
0.0000000001
 40
0.0
 40
0.0
 40
0.0
 40
0.0
 40
0.1
 40
0.1
 40
0.1
 40
0.1
 40
0.2
 40
0.2
 40
0.2
 40
0.2
 40
0.3
 40
0.3
 40
0.3
 40
0.3
 40
0.4
 40
0.4
 40
0.4
 40
0.4
 40
0.5
 40
0.5
 40
0.5
 40
0.5
 40
0.6
 40
0.6
 40
0.6
 40
0.6
 40
0.7
 40
0.7
 40
0.7
 40
0.7
 40
0.7999999999999999
 40
0.7999999999999999
 40
0.7999999999999999
 40
0.7999999999999999
 40
0.8999999999999999
 40
0.8999999999999999
 40
0.8999999999999999
 40
0.8999999999999999
 40
1.0
 40
1.0
 40
1.0
 40
1.0
 10
-3.008803149606299
 20
-0.1084212598425197
 30
0.0
 10
-2.988822834645669
 20
-0.1084212598425197
 30
0.0
 10
-2.970728346456693
 20
-0.1165236220472441
 30
0.0
 10
-2.957633858267716
 20
-0.1296181102362205
 30
0.0
 10
-2.957633858267716
 20
-0.1296181102362205
 30
0.0
 10
-2.94453937007874
 20
-0.1427125984251968
 30
0.0
 10
-2.936437007874016
 20
-0.1608110236220472
 30
0.0
 10
-2.936437007874016
 20
-0.1807913385826772
 30
0.0
 10
-2.936437007874016
 20
-0.1807913385826772
 30
0.0
 10
-2.936437007874016
 20
-0.2007716535433071
 30
0.0
 10
-2.94453937007874
 20
-0.2188700787401575
 30
0.0
 10
-2.957633858267716
 20
-0.2319645669291339
 30
0.0
 10
-2.957633858267716
 20
-0.2319645669291339
 30
0.0
 10
-2.970728346456693
 20
-0.2450590551181102
 30
0.0
 10
-2.988830708661417
 20
-0.2531614173228346
 30
0.0
 10
-3.008803149606299
 20
-0.2531614173228346
 30
0.0
 10
-3.008803149606299
 20
-0.2531614173228346
 30
0.0
 10
-3.028783464566929
 20
-0.2531614173228346
 30
0.0
 10
-3.046881889763779
 20
-0.2450590551181102
 30
0.0
 10
-3.059976377952756
 20
-0.2319645669291339
 30
0.0
 10
-3.059976377952756
 20
-0.2319645669291339
 30
0.0
 10
-3.059976377952756
 20
-0.2319645669291339
 30
0.0
 10
-3.059968503937008
 20
-0.2319566929133858
 30
0.0
 10
-3.059968503937008
 20
-0.2319566929133858
 30
0.0
 10
-3.059968503937008
 20
-0.2319566929133858
 30
0.0
 10
-3.073070866141732
 20
-0.2188543307086614
 30
0.0
 10
-3.081177165354331
 20
-0.200759842519685
 30
0.0
 10
-3.081177165354331
 20
-0.1807913385826772
 30
0.0
 10
-3.081177165354331
 20
-0.1807913385826772
 30
0.0
 10
-3.081177165354331
 20
-0.1608110236220472
 30
0.0
 10
-3.073074803149606
 20
-0.1427125984251968
 30
0.0
 10
-3.05998031496063
 20
-0.1296181102362205
 30
0.0
 10
-3.05998031496063
 20
-0.1296181102362205
 30
0.0
 10
-3.05998031496063
 20
-0.1296181102362205
 30
0.0
 10
-3.059964566929134
 20
-0.1296181102362205
 30
0.0
 10
-3.059964566929134
 20
-0.1296181102362205
 30
0.0
 10
-3.059964566929134
 20
-0.1296181102362205
 30
0.0
 10
-3.046870078740158
 20
-0.1165275590551181
 30
0.0
 10
-3.028775590551181
 20
-0.1084212598425197
 30
0.0
 10
-3.008803149606299
 20
-0.1084212598425197
 30
0.0
  0
SPLINE
  5
64
330
1F
100
AcDbEntity
  8
Warstwa 1
 62
   250
100
AcDbSpline
210
0.0
220
0.0
230
1.0
 70
    11
 71
     3
 72
    44
 73
    40
 74
     0
 42
0.0000000001
 43
0.0000000001
 40
0.0
 40
0.0
 40
0.0
 40
0.0
 40
0.1
 40
0.1
 40
0.1
 40
0.1
 40
0.2
 40
0.2
 40
0.2
 40
0.2
 40
0.3
 40
0.3
 40
0.3
 40
0.3
 40
0.4
 40
0.4
 40
0.4
 40
0.4
 40
0.5
 40
0.5
 40
0.5
 40
0.5
 40
0.6
 40
0.6
 40
0.6
 40
0.6
 40
0.7
 40
0.7
 40
0.7
 40
0.7
 40
0.7999999999999999
 40
0.7999999999999999
 40
0.7999999999999999
 40
0.7999999999999999
 40
0.8999999999999999
 40
0.8999999999999999
 40
0.8999999999999999
 40
0.8999999999999999
 40
1.0
 40
1.0
 40
1.0
 40
1.0
 10
-2.962547244094488
 20
-0.1345314960629921
 30
0.0
 10
-2.974385826771654
 20
-0.1226929133858268
 30
0.0
 10
-2.990744094488189
 20
-0.1153661417322835
 30
0.0
 10
-3.008803149606299
 20
-0.1153661417322835
 30
0.0
 10
-3.008803149606299
 20
-0.1153661417322835
 30
0.0
 10
-3.026870078740158
 20
-0.1153661417322835
 30
0.0
 10
-3.043232283464567
 20
-0.1226889763779528
 30
0.0
 10
-3.055074803149606
 20
-0.1345236220472441
 30
0.0
 10
-3.055074803149606
 20
-0.1345236220472441
 30
0.0
 10
-3.055074803149606
 20
-0.1345236220472441
 30
0.0
 10
-3.055066929133858
 20
-0.1345314960629921
 30
0.0
 10
-3.055066929133858
 20
-0.1345314960629921
 30
0.0
 10
-3.055066929133858
 20
-0.1345314960629921
 30
0.0
 10
-3.066905511811024
 20
-0.1463700787401575
 30
0.0
 10
-3.074232283464567
 20
-0.1627283464566929
 30
0.0
 10
-3.074232283464567
 20
-0.1807913385826772
 30
0.0
 10
-3.074232283464567
 20
-0.1807913385826772
 30
0.0
 10
-3.074232283464567
 20
-0.1988622047244094
 30
0.0
 10
-3.066909448818897
 20
-0.2152244094488189
 30
0.0
 10
-3.05507874015748
 20
-0.2270511811023622
 30
0.0
 10
-3.05507874015748
 20
-0.2270511811023622
 30
0.0
 10
-3.05507874015748
 20
-0.2270511811023622
 30
0.0
 10
-3.055062992125984
 20
-0.2270511811023622
 30
0.0
 10
-3.055062992125984
 20
-0.2270511811023622
 30
0.0
 10
-3.055062992125984
 20
-0.2270511811023622
 30
0.0
 10
-3.043224409448819
 20
-0.2388897637795276
 30
0.0
 10
-3.026866141732283
 20
-0.2462165354330709
 30
0.0
 10
-3.008803149606299
 20
-0.2462165354330709
 30
0.0
 10
-3.008803149606299
 20
-0.2462165354330709
 30
0.0
 10
-2.990744094488189
 20
-0.2462165354330709
 30
0.0
 10
-2.974385826771654
 20
-0.2388897637795276
 30
0.0
 10
-2.962547244094488
 20
-0.2270511811023622
 30
0.0
 10
-2.962547244094488
 20
-0.2270511811023622
 30
0.0
 10
-2.950708661417323
 20
-0.2152125984251969
 30
0.0
 10
-2.94338188976378
 20
-0.1988543307086614
 30
0.0
 10
-2.94338188976378
 20
-0.1807913385826772
 30
0.0
 10
-2.94338188976378
 20
-0.1807913385826772
 30
0.0
 10
-2.94338188976378
 20
-0.1627283464566929
 30
0.0
 10
-2.950708661417323
 20
-0.1463700787401575
 30
0.0
 10
-2.962547244094488
 20
-0.1345314960629921
 30
0.0
  0
SPLINE
  5
65
330
1F
100
AcDbEntity
  8
Warstwa 1
 62
   250
100
AcDbSpline
210
0.0
220
0.0
230
1.0
 70
    11
 71
     3
 72
    44
 73
    40
 74
     0
 42
0.0000000001
 43
0.0000000001
 40
0.0
 40
0.0
 40
0.0
 40
0.0
 40
0.1
 40
0.1
 40
0.1
 40
0.1
 40
0.2
 40
0.2
 40
0.2
 40
0.2
 40
0.3
 40
0.3
 40
0.3
 40
0.3
 40
0.4
 40
0.4
 40
0.4
 40
0.4
 40
0.5
 40
0.5
 40
0.5
 40
0.5
 40
0.6
 40
0.6
 40
0.6
 40
0.6
 40
0.7
 40
0.7
 40
0.7
 40
0.7
 40
0.7999999999999999
 40
0.7999999999999999
 40
0.7999999999999999
 40
0.7999999999999999
 40
0.8999999999999999
 40
0.8999999999999999
 40
0.8999999999999999
 40
0.8999999999999999
 40
1.0
 40
1.0
 40
1.0
 40
1.0
 10
-3.008803149606299
 20
1.702602362204724
 30
0.0
 10
-2.988822834645669
 20
1.702602362204724
 30
0.0
 10
-2.970728346456693
 20
1.6945
 30
0.0
 10
-2.957633858267716
 20
1.681405511811024
 30
0.0
 10
-2.957633858267716
 20
1.681405511811024
 30
0.0
 10
-2.94453937007874
 20
1.668311023622047
 30
0.0
 10
-2.936437007874016
 20
1.650212598425197
 30
0.0
 10
-2.936437007874016
 20
1.630232283464567
 30
0.0
 10
-2.936437007874016
 20
1.630232283464567
 30
0.0
 10
-2.936437007874016
 20
1.610251968503937
 30
0.0
 10
-2.94453937007874
 20
1.592153543307087
 30
0.0
 10
-2.957633858267716
 20
1.57905905511811
 30
0.0
 10
-2.957633858267716
 20
1.57905905511811
 30
0.0
 10
-2.970728346456693
 20
1.565964566929134
 30
0.0
 10
-2.988830708661417
 20
1.55786220472441
 30
0.0
 10
-3.008803149606299
 20
1.55786220472441
 30
0.0
 10
-3.008803149606299
 20
1.55786220472441
 30
0.0
 10
-3.028783464566929
 20
1.55786220472441
 30
0.0
 10
-3.046881889763779
 20
1.565964566929134
 30
0.0
 10
-3.059976377952756
 20
1.57905905511811
 30
0.0
 10
-3.059976377952756
 20
1.57905905511811
 30
0.0
 10
-3.059976377952756
 20
1.57905905511811
 30
0.0
 10
-3.059968503937008
 20
1.579066929133858
 30
0.0
 10
-3.059968503937008
 20
1.579066929133858
 30
0.0
 10
-3.059968503937008
 20
1.579066929133858
 30
0.0
 10
-3.073070866141732
 20
1.592169291338583
 30
0.0
 10
-3.081177165354331
 20
1.610263779527559
 30
0.0
 10
-3.081177165354331
 20
1.630232283464567
 30
0.0
 10
-3.081177165354331
 20
1.630232283464567
 30
0.0
 10
-3.081177165354331
 20
1.650212598425197
 30
0.0
 10
-3.073074803149606
 20
1.668311023622047
 30
0.0
 10
-3.05998031496063
 20
1.681405511811024
 30
0.0
 10
-3.05998031496063
 20
1.681405511811024
 30
0.0
 10
-3.05998031496063
 20
1.681405511811024
 30
0.0
 10
-3.059964566929134
 20
1.681405511811024
 30
0.0
 10
-3.059964566929134
 20
1.681405511811024
 30
0.0
 10
-3.059964566929134
 20
1.681405511811024
 30
0.0
 10
-3.046870078740158
 20
1.694496062992126
 30
0.0
 10
-3.028775590551181
 20
1.702602362204724
 30
0.0
 10
-3.008803149606299
 20
1.702602362204724
 30
0.0
  0
SPLINE
  5
66
330
1F
100
AcDbEntity
  8
Warstwa 1
 62
   250
100
AcDbSpline
210
0.0
220
0.0
230
1.0
 70
    11
 71
     3
 72
    44
 73
    40
 74
     0
 42
0.0000000001
 43
0.0000000001
 40
0.0
 40
0.0
 40
0.0
 40
0.0
 40
0.1
 40
0.1
 40
0.1
 40
0.1
 40
0.2
 40
0.2
 40
0.2
 40
0.2
 40
0.3
 40
0.3
 40
0.3
 40
0.3
 40
0.4
 40
0.4
 40
0.4
 40
0.4
 40
0.5
 40
0.5
 40
0.5
 40
0.5
 40
0.6
 40
0.6
 40
0.6
 40
0.6
 40
0.7
 40
0.7
 40
0.7
 40
0.7
 40
0.7999999999999999
 40
0.7999999999999999
 40
0.7999999999999999
 40
0.7999999999999999
 40
0.8999999999999999
 40
0.8999999999999999
 40
0.8999999999999999
 40
0.8999999999999999
 40
1.0
 40
1.0
 40
1.0
 40
1.0
 10
-2.962547244094488
 20
1.676492125984252
 30
0.0
 10
-2.974385826771654
 20
1.688330708661417
 30
0.0
 10
-2.990744094488189
 20
1.695657480314961
 30
0.0
 10
-3.008803149606299
 20
1.695657480314961
 30
0.0
 10
-3.008803149606299
 20
1.695657480314961
 30
0.0
 10
-3.026870078740158
 20
1.695657480314961
 30
0.0
 10
-3.043232283464567
 20
1.688334645669291
 30
0.0
 10
-3.055074803149606
 20
1.6765
 30
0.0
 10
-3.055074803149606
 20
1.6765
 30
0.0
 10
-3.055074803149606
 20
1.6765
 30
0.0
 10
-3.055066929133858
 20
1.676492125984252
 30
0.0
 10
-3.055066929133858
 20
1.676492125984252
 30
0.0
 10
-3.055066929133858
 20
1.676492125984252
 30
0.0
 10
-3.066905511811024
 20
1.664653543307087
 30
0.0
 10
-3.074232283464567
 20
1.648295275590551
 30
0.0
 10
-3.074232283464567
 20
1.630232283464567
 30
0.0
 10
-3.074232283464567
 20
1.630232283464567
 30
0.0
 10
-3.074232283464567
 20
1.612161417322835
 30
0.0
 10
-3.066909448818897
 20
1.595799212598425
 30
0.0
 10
-3.05507874015748
 20
1.583972440944882
 30
0.0
 10
-3.05507874015748
 20
1.583972440944882
 30
0.0
 10
-3.05507874015748
 20
1.583972440944882
 30
0.0
 10
-3.055062992125984
 20
1.583972440944882
 30
0.0
 10
-3.055062992125984
 20
1.583972440944882
 30
0.0
 10
-3.055062992125984
 20
1.583972440944882
 30
0.0
 10
-3.043224409448819
 20
1.572133858267716
 30
0.0
 10
-3.026866141732283
 20
1.564807086614173
 30
0.0
 10
-3.008803149606299
 20
1.564807086614173
 30
0.0
 10
-3.008803149606299
 20
1.564807086614173
 30
0.0
 10
-2.990744094488189
 20
1.564807086614173
 30
0.0
 10
-2.974385826771654
 20
1.572133858267716
 30
0.0
 10
-2.962547244094488
 20
1.583972440944882
 30
0.0
 10
-2.962547244094488
 20
1.583972440944882
 30
0.0
 10
-2.950708661417323
 20
1.595811023622047
 30
0.0
 10
-2.94338188976378
 20
1.612169291338583
 30
0.0
 10
-2.94338188976378
 20
1.630232283464567
 30
0.0
 10
-2.94338188976378
 20
1.630232283464567
 30
0.0
 10
-2.94338188976378
 20
1.648295275590551
 30
0.0
 10
-2.950708661417323
 20
1.664653543307087
 30
0.0
 10
-2.962547244094488
 20
1.676492125984252
 30
0.0
  0
SPLINE
  5
67
330
1F
100
AcDbEntity
  8
Warstwa 1
 62
   250
100
AcDbSpline
210
0.0
220
0.0
230
1.0
 70
    11
 71
     3
 72
    44
 73
    40
 74
     0
 42
0.0000000001
 43
0.0000000001
 40
0.0
 40
0.0
 40
0.0
 40
0.0
 40
0.1
 40
0.1
 40
0.1
 40
0.1
 40
0.2
 40
0.2
 40
0.2
 40
0.2
 40
0.3
 40
0.3
 40
0.3
 40
0.3
 40
0.4
 40
0.4
 40
0.4
 40
0.4
 40
0.5
 40
0.5
 40
0.5
 40
0.5
 40
0.6
 40
0.6
 40
0.6
 40
0.6
 40
0.7
 40
0.7
 40
0.7
 40
0.7
 40
0.7999999999999999
 40
0.7999999999999999
 40
0.7999999999999999
 40
0.7999999999999999
 40
0.8999999999999999
 40
0.8999999999999999
 40
0.8999999999999999
 40
0.8999999999999999
 40
1.0
 40
1.0
 40
1.0
 40
1.0
 10
-3.008803149606299
 20
-1.643854330708661
 30
0.0
 10
-2.988822834645669
 20
-1.643854330708661
 30
0.0
 10
-2.970728346456693
 20
-1.651956692913386
 30
0.0
 10
-2.957633858267716
 20
-1.665051181102362
 30
0.0
 10
-2.957633858267716
 20
-1.665051181102362
 30
0.0
 10
-2.94453937007874
 20
-1.678145669291339
 30
0.0
 10
-2.936437007874016
 20
-1.696244094488189
 30
0.0
 10
-2.936437007874016
 20
-1.716224409448819
 30
0.0
 10
-2.936437007874016
 20
-1.716224409448819
 30
0.0
 10
-2.936437007874016
 20
-1.736204724409449
 30
0.0
 10
-2.94453937007874
 20
-1.754303149606299
 30
0.0
 10
-2.957633858267716
 20
-1.767397637795276
 30
0.0
 10
-2.957633858267716
 20
-1.767397637795276
 30
0.0
 10
-2.970728346456693
 20
-1.780492125984252
 30
0.0
 10
-2.988830708661417
 20
-1.788594488188976
 30
0.0
 10
-3.008803149606299
 20
-1.788594488188976
 30
0.0
 10
-3.008803149606299
 20
-1.788594488188976
 30
0.0
 10
-3.028783464566929
 20
-1.788594488188976
 30
0.0
 10
-3.046881889763779
 20
-1.780492125984252
 30
0.0
 10
-3.059976377952756
 20
-1.767397637795276
 30
0.0
 10
-3.059976377952756
 20
-1.767397637795276
 30
0.0
 10
-3.059976377952756
 20
-1.767397637795276
 30
0.0
 10
-3.059968503937008
 20
-1.767389763779528
 30
0.0
 10
-3.059968503937008
 20
-1.767389763779528
 30
0.0
 10
-3.059968503937008
 20
-1.767389763779528
 30
0.0
 10
-3.073070866141732
 20
-1.754287401574803
 30
0.0
 10
-3.081177165354331
 20
-1.736192913385827
 30
0.0
 10
-3.081177165354331
 20
-1.716224409448819
 30
0.0
 10
-3.081177165354331
 20
-1.716224409448819
 30
0.0
 10
-3.081177165354331
 20
-1.696244094488189
 30
0.0
 10
-3.073074803149606
 20
-1.678145669291339
 30
0.0
 10
-3.05998031496063
 20
-1.665051181102362
 30
0.0
 10
-3.05998031496063
 20
-1.665051181102362
 30
0.0
 10
-3.05998031496063
 20
-1.665051181102362
 30
0.0
 10
-3.059964566929134
 20
-1.665051181102362
 30
0.0
 10
-3.059964566929134
 20
-1.665051181102362
 30
0.0
 10
-3.059964566929134
 20
-1.665051181102362
 30
0.0
 10
-3.046870078740158
 20
-1.65196062992126
 30
0.0
 10
-3.028775590551181
 20
-1.643854330708661
 30
0.0
 10
-3.008803149606299
 20
-1.643854330708661
 30
0.0
  0
SPLINE
  5
68
330
1F
100
AcDbEntity
  8
Warstwa 1
 62
   250
100
AcDbSpline
210
0.0
220
0.0
230
1.0
 70
    11
 71
     3
 72
    44
 73
    40
 74
     0
 42
0.0000000001
 43
0.0000000001
 40
0.0
 40
0.0
 40
0.0
 40
0.0
 40
0.1
 40
0.1
 40
0.1
 40
0.1
 40
0.2
 40
0.2
 40
0.2
 40
0.2
 40
0.3
 40
0.3
 40
0.3
 40
0.3
 40
0.4
 40
0.4
 40
0.4
 40
0.4
 40
0.5
 40
0.5
 40
0.5
 40
0.5
 40
0.6
 40
0.6
 40
0.6
 40
0.6
 40
0.7
 40
0.7
 40
0.7
 40
0.7
 40
0.7999999999999999
 40
0.7999999999999999
 40
0.7999999999999999
 40
0.7999999999999999
 40
0.8999999999999999
 40
0.8999999999999999
 40
0.8999999999999999
 40
0.8999999999999999
 40
1.0
 40
1.0
 40
1.0
 40
1.0
 10
-2.962547244094488
 20
-1.669964566929134
 30
0.0
 10
-2.974385826771654
 20
-1.658125984251968
 30
0.0
 10
-2.990744094488189
 20
-1.650799212598425
 30
0.0
 10
-3.008803149606299
 20
-1.650799212598425
 30
0.0
 10
-3.008803149606299
 20
-1.650799212598425
 30
0.0
 10
-3.026870078740158
 20
-1.650799212598425
 30
0.0
 10
-3.043232283464567
 20
-1.658122047244095
 30
0.0
 10
-3.055074803149606
 20
-1.669956692913386
 30
0.0
 10
-3.055074803149606
 20
-1.669956692913386
 30
0.0
 10
-3.055074803149606
 20
-1.669956692913386
 30
0.0
 10
-3.055066929133858
 20
-1.669964566929134
 30
0.0
 10
-3.055066929133858
 20
-1.669964566929134
 30
0.0
 10
-3.055066929133858
 20
-1.669964566929134
 30
0.0
 10
-3.066905511811024
 20
-1.681803149606299
 30
0.0
 10
-3.074232283464567
 20
-1.698161417322835
 30
0.0
 10
-3.074232283464567
 20
-1.716224409448819
 30
0.0
 10
-3.074232283464567
 20
-1.716224409448819
 30
0.0
 10
-3.074232283464567
 20
-1.734295275590551
 30
0.0
 10
-3.066909448818897
 20
-1.750657480314961
 30
0.0
 10
-3.05507874015748
 20
-1.762484251968504
 30
0.0
 10
-3.05507874015748
 20
-1.762484251968504
 30
0.0
 10
-3.05507874015748
 20
-1.762484251968504
 30
0.0
 10
-3.055062992125984
 20
-1.762484251968504
 30
0.0
 10
-3.055062992125984
 20
-1.762484251968504
 30
0.0
 10
-3.055062992125984
 20
-1.762484251968504
 30
0.0
 10
-3.043224409448819
 20
-1.774322834645669
 30
0.0
 10
-3.026866141732283
 20
-1.781649606299213
 30
0.0
 10
-3.008803149606299
 20
-1.781649606299213
 30
0.0
 10
-3.008803149606299
 20
-1.781649606299213
 30
0.0
 10
-2.990744094488189
 20
-1.781649606299213
 30
0.0
 10
-2.974385826771654
 20
-1.774322834645669
 30
0.0
 10
-2.962547244094488
 20
-1.762484251968504
 30
0.0
 10
-2.962547244094488
 20
-1.762484251968504
 30
0.0
 10
-2.950708661417323
 20
-1.750645669291339
 30
0.0
 10
-2.94338188976378
 20
-1.734287401574803
 30
0.0
 10
-2.94338188976378
 20
-1.716224409448819
 30
0.0
 10
-2.94338188976378
 20
-1.716224409448819
 30
0.0
 10
-2.94338188976378
 20
-1.698161417322835
 30
0.0
 10
-2.950708661417323
 20
-1.681803149606299
 30
0.0
 10
-2.962547244094488
 20
-1.669964566929134
 30
0.0
  0
SPLINE
  5
69
330
1F
100
AcDbEntity
  8
Warstwa 1
 62
   250
100
AcDbSpline
210
0.0
220
0.0
230
1.0
 70
    11
 71
     3
 72
    48
 73
    44
 74
     0
 42
0.0000000001
 43
0.0000000001
 40
0.0
 40
0.0
 40
0.0
 40
0.0
 40
0.0909090909090909
 40
0.0909090909090909
 40
0.0909090909090909
 40
0.0909090909090909
 40
0.1818181818181818
 40
0.1818181818181818
 40
0.1818181818181818
 40
0.1818181818181818
 40
0.2727272727272727
 40
0.2727272727272727
 40
0.2727272727272727
 40
0.2727272727272727
 40
0.3636363636363636
 40
0.3636363636363636
 40
0.3636363636363636
 40
0.3636363636363636
 40
0.4545454545454546
 40
0.4545454545454546
 40
0.4545454545454546
 40
0.4545454545454546
 40
0.5454545454545455
 40
0.5454545454545455
 40
0.5454545454545455
 40
0.5454545454545455
 40
0.6363636363636365
 40
0.6363636363636365
 40
0.6363636363636365
 40
0.6363636363636365
 40
0.7272727272727274
 40
0.7272727272727274
 40
0.7272727272727274
 40
0.7272727272727274
 40
0.8181818181818183
 40
0.8181818181818183
 40
0.8181818181818183
 40
0.8181818181818183
 40
0.9090909090909093
 40
0.9090909090909093
 40
0.9090909090909093
 40
0.9090909090909093
 40
1.0
 40
1.0
 40
1.0
 40
1.0
 10
-3.008803149606299
 20
-2.322988188976378
 30
0.0
 10
-2.980665354330708
 20
-2.322988188976378
 30
0.0
 10
-2.955192913385827
 20
-2.334397637795276
 30
0.0
 10
-2.936755905511811
 20
-2.352834645669291
 30
0.0
 10
-2.936755905511811
 20
-2.352834645669291
 30
0.0
 10
-2.936755905511811
 20
-2.352834645669291
 30
0.0
 10
-2.936763779527559
 20
-2.352842519685039
 30
0.0
 10
-2.936763779527559
 20
-2.352842519685039
 30
0.0
 10
-2.936763779527559
 20
-2.352842519685039
 30
0.0
 10
-2.918318897637795
 20
-2.371287401574803
 30
0.0
 10
-2.906909448818898
 20
-2.396763779527559
 30
0.0
 10
-2.906909448818898
 20
-2.424885826771654
 30
0.0
 10
-2.906909448818898
 20
-2.424885826771654
 30
0.0
 10
-2.906909448818898
 20
-2.453023622047244
 30
0.0
 10
-2.918318897637795
 20
-2.4785
 30
0.0
 10
-2.936755905511811
 20
-2.496937007874016
 30
0.0
 10
-2.936755905511811
 20
-2.496937007874016
 30
0.0
 10
-2.955192913385827
 20
-2.515374015748031
 30
0.0
 10
-2.980669291338583
 20
-2.526783464566929
 30
0.0
 10
-3.008803149606299
 20
-2.526783464566929
 30
0.0
 10
-3.008803149606299
 20
-2.526783464566929
 30
0.0
 10
-3.036929133858268
 20
-2.526783464566929
 30
0.0
 10
-3.062401574803149
 20
-2.515374015748031
 30
0.0
 10
-3.08084251968504
 20
-2.496937007874016
 30
0.0
 10
-3.08084251968504
 20
-2.496937007874016
 30
0.0
 10
-3.08084251968504
 20
-2.496937007874016
 30
0.0
 10
-3.080858267716535
 20
-2.496937007874016
 30
0.0
 10
-3.080858267716535
 20
-2.496937007874016
 30
0.0
 10
-3.080858267716535
 20
-2.496937007874016
 30
0.0
 10
-3.099295275590551
 20
-2.4785
 30
0.0
 10
-3.110704724409449
 20
-2.453023622047244
 30
0.0
 10
-3.110704724409449
 20
-2.424885826771654
 30
0.0
 10
-3.110704724409449
 20
-2.424885826771654
 30
0.0
 10
-3.110704724409449
 20
-2.396748031496063
 30
0.0
 10
-3.099295275590551
 20
-2.371271653543307
 30
0.0
 10
-3.080858267716535
 20
-2.352834645669291
 30
0.0
 10
-3.080858267716535
 20
-2.352834645669291
 30
0.0
 10
-3.080858267716535
 20
-2.352834645669291
 30
0.0
 10
-3.08084251968504
 20
-2.352834645669291
 30
0.0
 10
-3.08084251968504
 20
-2.352834645669291
 30
0.0
 10
-3.08084251968504
 20
-2.352834645669291
 30
0.0
 10
-3.062401574803149
 20
-2.334397637795276
 30
0.0
 10
-3.036929133858268
 20
-2.322988188976378
 30
0.0
 10
-3.008803149606299
 20
-2.322988188976378
 30
0.0
  0
SPLINE
  5
6A
330
1F
100
AcDbEntity
  8
Warstwa 1
 62
   250
100
AcDbSpline
210
0.0
220
0.0
230
1.0
 70
    11
 71
     3
 72
    48
 73
    44
 74
     0
 42
0.0000000001
 43
0.0000000001
 40
0.0
 40
0.0
 40
0.0
 40
0.0
 40
0.0909090909090909
 40
0.0909090909090909
 40
0.0909090909090909
 40
0.0909090909090909
 40
0.1818181818181818
 40
0.1818181818181818
 40
0.1818181818181818
 40
0.1818181818181818
 40
0.2727272727272727
 40
0.2727272727272727
 40
0.2727272727272727
 40
0.2727272727272727
 40
0.3636363636363636
 40
0.3636363636363636
 40
0.3636363636363636
 40
0.3636363636363636
 40
0.4545454545454546
 40
0.4545454545454546
 40
0.4545454545454546
 40
0.4545454545454546
 40
0.5454545454545455
 40
0.5454545454545455
 40
0.5454545454545455
 40
0.5454545454545455
 40
0.6363636363636365
 40
0.6363636363636365
 40
0.6363636363636365
 40
0.6363636363636365
 40
0.7272727272727274
 40
0.7272727272727274
 40
0.7272727272727274
 40
0.7272727272727274
 40
0.8181818181818183
 40
0.8181818181818183
 40
0.8181818181818183
 40
0.8181818181818183
 40
0.9090909090909093
 40
0.9090909090909093
 40
0.9090909090909093
 40
0.9090909090909093
 40
1.0
 40
1.0
 40
1.0
 40
1.0
 10
-2.941669291338583
 20
-2.357748031496063
 30
0.0
 10
-2.958850393700788
 20
-2.340566929133858
 30
0.0
 10
-2.982590551181102
 20
-2.329933070866142
 30
0.0
 10
-3.008803149606299
 20
-2.329933070866142
 30
0.0
 10
-3.008803149606299
 20
-2.329933070866142
 30
0.0
 10
-3.035023622047244
 20
-2.329933070866142
 30
0.0
 10
-3.058767716535433
 20
-2.340562992125984
 30
0.0
 10
-3.075952755905512
 20
-2.357740157480315
 30
0.0
 10
-3.075952755905512
 20
-2.357740157480315
 30
0.0
 10
-3.075952755905512
 20
-2.357740157480315
 30
0.0
 10
-3.075944881889764
 20
-2.357748031496063
 30
0.0
 10
-3.075944881889764
 20
-2.357748031496063
 30
0.0
 10
-3.075944881889764
 20
-2.357748031496063
 30
0.0
 10
-3.093125984251968
 20
-2.374929133858268
 30
0.0
 10
-3.103759842519685
 20
-2.398673228346457
 30
0.0
 10
-3.103759842519685
 20
-2.424885826771654
 30
0.0
 10
-3.103759842519685
 20
-2.424885826771654
 30
0.0
 10
-3.103759842519685
 20
-2.45109842519685
 30
0.0
 10
-3.093125984251968
 20
-2.474842519685039
 30
0.0
 10
-3.075944881889764
 20
-2.492023622047244
 30
0.0
 10
-3.075944881889764
 20
-2.492023622047244
 30
0.0
 10
-3.075944881889764
 20
-2.492023622047244
 30
0.0
 10
-3.075952755905512
 20
-2.492031496062992
 30
0.0
 10
-3.075952755905512
 20
-2.492031496062992
 30
0.0
 10
-3.075952755905512
 20
-2.492031496062992
 30
0.0
 10
-3.058767716535433
 20
-2.509208661417323
 30
0.0
 10
-3.035023622047244
 20
-2.519838582677165
 30
0.0
 10
-3.008803149606299
 20
-2.519838582677165
 30
0.0
 10
-3.008803149606299
 20
-2.519838582677165
 30
0.0
 10
-2.982590551181102
 20
-2.519838582677165
 30
0.0
 10
-2.958850393700788
 20
-2.509204724409449
 30
0.0
 10
-2.941669291338583
 20
-2.492023622047244
 30
0.0
 10
-2.941669291338583
 20
-2.492023622047244
 30
0.0
 10
-2.924488188976378
 20
-2.474842519685039
 30
0.0
 10
-2.913854330708662
 20
-2.45109842519685
 30
0.0
 10
-2.913854330708662
 20
-2.424885826771654
 30
0.0
 10
-2.913854330708662
 20
-2.424885826771654
 30
0.0
 10
-2.913854330708662
 20
-2.398661417322835
 30
0.0
 10
-2.92448031496063
 20
-2.374917322834646
 30
0.0
 10
-2.941653543307087
 20
-2.357748031496063
 30
0.0
 10
-2.941653543307087
 20
-2.357748031496063
 30
0.0
 10
-2.941653543307087
 20
-2.357748031496063
 30
0.0
 10
-2.941669291338583
 20
-2.357748031496063
 30
0.0
 10
-2.941669291338583
 20
-2.357748031496063
 30
0.0
  0
SPLINE
  5
6B
330
1F
100
AcDbEntity
  8
Warstwa 1
 62
   250
100
AcDbSpline
210
0.0
220
0.0
230
1.0
 70
    11
 71
     3
 72
    44
 73
    40
 74
     0
 42
0.0000000001
 43
0.0000000001
 40
0.0
 40
0.0
 40
0.0
 40
0.0
 40
0.1
 40
0.1
 40
0.1
 40
0.1
 40
0.2
 40
0.2
 40
0.2
 40
0.2
 40
0.3
 40
0.3
 40
0.3
 40
0.3
 40
0.4
 40
0.4
 40
0.4
 40
0.4
 40
0.5
 40
0.5
 40
0.5
 40
0.5
 40
0.6
 40
0.6
 40
0.6
 40
0.6
 40
0.7
 40
0.7
 40
0.7
 40
0.7
 40
0.7999999999999999
 40
0.7999999999999999
 40
0.7999999999999999
 40
0.7999999999999999
 40
0.8999999999999999
 40
0.8999999999999999
 40
0.8999999999999999
 40
0.8999999999999999
 40
1.0
 40
1.0
 40
1.0
 40
1.0
 10
-2.772582677165354
 20
2.5905
 30
0.0
 10
-2.752602362204724
 20
2.5905
 30
0.0
 10
-2.734507874015748
 20
2.582397637795276
 30
0.0
 10
-2.721413385826772
 20
2.569303149606299
 30
0.0
 10
-2.721413385826772
 20
2.569303149606299
 30
0.0
 10
-2.708318897637795
 20
2.556208661417323
 30
0.0
 10
-2.700216535433071
 20
2.538110236220473
 30
0.0
 10
-2.700216535433071
 20
2.518129921259843
 30
0.0
 10
-2.700216535433071
 20
2.518129921259843
 30
0.0
 10
-2.700216535433071
 20
2.498149606299213
 30
0.0
 10
-2.708318897637795
 20
2.480051181102362
 30
0.0
 10
-2.721413385826772
 20
2.466956692913386
 30
0.0
 10
-2.721413385826772
 20
2.466956692913386
 30
0.0
 10
-2.734507874015748
 20
2.453862204724409
 30
0.0
 10
-2.752610236220472
 20
2.445759842519685
 30
0.0
 10
-2.772582677165354
 20
2.445759842519685
 30
0.0
 10
-2.772582677165354
 20
2.445759842519685
 30
0.0
 10
-2.792562992125984
 20
2.445759842519685
 30
0.0
 10
-2.810661417322835
 20
2.453862204724409
 30
0.0
 10
-2.823755905511811
 20
2.466956692913386
 30
0.0
 10
-2.823755905511811
 20
2.466956692913386
 30
0.0
 10
-2.823755905511811
 20
2.466956692913386
 30
0.0
 10
-2.823748031496063
 20
2.466964566929134
 30
0.0
 10
-2.823748031496063
 20
2.466964566929134
 30
0.0
 10
-2.823748031496063
 20
2.466964566929134
 30
0.0
 10
-2.836850393700788
 20
2.480066929133858
 30
0.0
 10
-2.844956692913386
 20
2.498161417322835
 30
0.0
 10
-2.844956692913386
 20
2.518129921259843
 30
0.0
 10
-2.844956692913386
 20
2.518129921259843
 30
0.0
 10
-2.844956692913386
 20
2.538110236220473
 30
0.0
 10
-2.836854330708662
 20
2.556208661417323
 30
0.0
 10
-2.823759842519685
 20
2.569303149606299
 30
0.0
 10
-2.823759842519685
 20
2.569303149606299
 30
0.0
 10
-2.823759842519685
 20
2.569303149606299
 30
0.0
 10
-2.823744094488189
 20
2.569303149606299
 30
0.0
 10
-2.823744094488189
 20
2.569303149606299
 30
0.0
 10
-2.823744094488189
 20
2.569303149606299
 30
0.0
 10
-2.810649606299213
 20
2.582393700787402
 30
0.0
 10
-2.792555118110236
 20
2.5905
 30
0.0
 10
-2.772582677165354
 20
2.5905
 30
0.0
  0
SPLINE
  5
6C
330
1F
100
AcDbEntity
  8
Warstwa 1
 62
   250
100
AcDbSpline
210
0.0
220
0.0
230
1.0
 70
    11
 71
     3
 72
    44
 73
    40
 74
     0
 42
0.0000000001
 43
0.0000000001
 40
0.0
 40
0.0
 40
0.0
 40
0.0
 40
0.1
 40
0.1
 40
0.1
 40
0.1
 40
0.2
 40
0.2
 40
0.2
 40
0.2
 40
0.3
 40
0.3
 40
0.3
 40
0.3
 40
0.4
 40
0.4
 40
0.4
 40
0.4
 40
0.5
 40
0.5
 40
0.5
 40
0.5
 40
0.6
 40
0.6
 40
0.6
 40
0.6
 40
0.7
 40
0.7
 40
0.7
 40
0.7
 40
0.7999999999999999
 40
0.7999999999999999
 40
0.7999999999999999
 40
0.7999999999999999
 40
0.8999999999999999
 40
0.8999999999999999
 40
0.8999999999999999
 40
0.8999999999999999
 40
1.0
 40
1.0
 40
1.0
 40
1.0
 10
-2.726326771653543
 20
2.564389763779527
 30
0.0
 10
-2.738165354330709
 20
2.576228346456693
 30
0.0
 10
-2.754523622047244
 20
2.583555118110236
 30
0.0
 10
-2.772582677165354
 20
2.583555118110236
 30
0.0
 10
-2.772582677165354
 20
2.583555118110236
 30
0.0
 10
-2.790649606299213
 20
2.583555118110236
 30
0.0
 10
-2.807011811023622
 20
2.576232283464567
 30
0.0
 10
-2.818854330708661
 20
2.564397637795276
 30
0.0
 10
-2.818854330708661
 20
2.564397637795276
 30
0.0
 10
-2.818854330708661
 20
2.564397637795276
 30
0.0
 10
-2.818846456692913
 20
2.564389763779527
 30
0.0
 10
-2.818846456692913
 20
2.564389763779527
 30
0.0
 10
-2.818846456692913
 20
2.564389763779527
 30
0.0
 10
-2.830685039370079
 20
2.552551181102362
 30
0.0
 10
-2.838011811023622
 20
2.536192913385827
 30
0.0
 10
-2.838011811023622
 20
2.518129921259843
 30
0.0
 10
-2.838011811023622
 20
2.518129921259843
 30
0.0
 10
-2.838011811023622
 20
2.50005905511811
 30
0.0
 10
-2.830688976377953
 20
2.483696850393701
 30
0.0
 10
-2.818858267716535
 20
2.471870078740158
 30
0.0
 10
-2.818858267716535
 20
2.471870078740158
 30
0.0
 10
-2.818858267716535
 20
2.471870078740158
 30
0.0
 10
-2.81884251968504
 20
2.471870078740158
 30
0.0
 10
-2.81884251968504
 20
2.471870078740158
 30
0.0
 10
-2.81884251968504
 20
2.471870078740158
 30
0.0
 10
-2.807003937007874
 20
2.460031496062992
 30
0.0
 10
-2.790645669291338
 20
2.452704724409449
 30
0.0
 10
-2.772582677165354
 20
2.452704724409449
 30
0.0
 10
-2.772582677165354
 20
2.452704724409449
 30
0.0
 10
-2.754523622047244
 20
2.452704724409449
 30
0.0
 10
-2.738165354330709
 20
2.460031496062992
 30
0.0
 10
-2.726326771653543
 20
2.471870078740158
 30
0.0
 10
-2.726326771653543
 20
2.471870078740158
 30
0.0
 10
-2.714488188976378
 20
2.483708661417323
 30
0.0
 10
-2.707161417322835
 20
2.500066929133858
 30
0.0
 10
-2.707161417322835
 20
2.518129921259843
 30
0.0
 10
-2.707161417322835
 20
2.518129921259843
 30
0.0
 10
-2.707161417322835
 20
2.536192913385827
 30
0.0
 10
-2.714488188976378
 20
2.552551181102362
 30
0.0
 10
-2.726326771653543
 20
2.564389763779527
 30
0.0
  0
SPLINE
  5
6D
330
1F
100
AcDbEntity
  8
Warstwa 1
 62
   250
100
AcDbSpline
210
0.0
220
0.0
230
1.0
 70
    11
 71
     3
 72
    44
 73
    40
 74
     0
 42
0.0000000001
 43
0.0000000001
 40
0.0
 40
0.0
 40
0.0
 40
0.0
 40
0.1
 40
0.1
 40
0.1
 40
0.1
 40
0.2
 40
0.2
 40
0.2
 40
0.2
 40
0.3
 40
0.3
 40
0.3
 40
0.3
 40
0.4
 40
0.4
 40
0.4
 40
0.4
 40
0.5
 40
0.5
 40
0.5
 40
0.5
 40
0.6
 40
0.6
 40
0.6
 40
0.6
 40
0.7
 40
0.7
 40
0.7
 40
0.7
 40
0.7999999999999999
 40
0.7999999999999999
 40
0.7999999999999999
 40
0.7999999999999999
 40
0.8999999999999999
 40
0.8999999999999999
 40
0.8999999999999999
 40
0.8999999999999999
 40
1.0
 40
1.0
 40
1.0
 40
1.0
 10
-2.69384251968504
 20
-2.490311023622047
 30
0.0
 10
-2.67386220472441
 20
-2.490311023622047
 30
0.0
 10
-2.655767716535433
 20
-2.498413385826772
 30
0.0
 10
-2.642673228346457
 20
-2.511507874015748
 30
0.0
 10
-2.642673228346457
 20
-2.511507874015748
 30
0.0
 10
-2.62957874015748
 20
-2.524602362204724
 30
0.0
 10
-2.621476377952756
 20
-2.542700787401575
 30
0.0
 10
-2.621476377952756
 20
-2.562681102362205
 30
0.0
 10
-2.621476377952756
 20
-2.562681102362205
 30
0.0
 10
-2.621476377952756
 20
-2.582661417322835
 30
0.0
 10
-2.62957874015748
 20
-2.600759842519685
 30
0.0
 10
-2.642673228346457
 20
-2.613854330708661
 30
0.0
 10
-2.642673228346457
 20
-2.613854330708661
 30
0.0
 10
-2.655767716535433
 20
-2.626948818897638
 30
0.0
 10
-2.673870078740157
 20
-2.635051181102362
 30
0.0
 10
-2.69384251968504
 20
-2.635051181102362
 30
0.0
 10
-2.69384251968504
 20
-2.635051181102362
 30
0.0
 10
-2.713822834645669
 20
-2.635051181102362
 30
0.0
 10
-2.73192125984252
 20
-2.626948818897638
 30
0.0
 10
-2.745015748031496
 20
-2.613854330708661
 30
0.0
 10
-2.745015748031496
 20
-2.613854330708661
 30
0.0
 10
-2.745015748031496
 20
-2.613854330708661
 30
0.0
 10
-2.745007874015748
 20
-2.613846456692913
 30
0.0
 10
-2.745007874015748
 20
-2.613846456692913
 30
0.0
 10
-2.745007874015748
 20
-2.613846456692913
 30
0.0
 10
-2.758110236220472
 20
-2.600744094488189
 30
0.0
 10
-2.766216535433071
 20
-2.582649606299213
 30
0.0
 10
-2.766216535433071
 20
-2.562681102362205
 30
0.0
 10
-2.766216535433071
 20
-2.562681102362205
 30
0.0
 10
-2.766216535433071
 20
-2.542700787401575
 30
0.0
 10
-2.758114173228346
 20
-2.524602362204724
 30
0.0
 10
-2.74501968503937
 20
-2.511507874015748
 30
0.0
 10
-2.74501968503937
 20
-2.511507874015748
 30
0.0
 10
-2.74501968503937
 20
-2.511507874015748
 30
0.0
 10
-2.745003937007874
 20
-2.511507874015748
 30
0.0
 10
-2.745003937007874
 20
-2.511507874015748
 30
0.0
 10
-2.745003937007874
 20
-2.511507874015748
 30
0.0
 10
-2.731909448818898
 20
-2.498417322834646
 30
0.0
 10
-2.713814960629921
 20
-2.490311023622047
 30
0.0
 10
-2.69384251968504
 20
-2.490311023622047
 30
0.0
  0
SPLINE
  5
6E
330
1F
100
AcDbEntity
  8
Warstwa 1
 62
   250
100
AcDbSpline
210
0.0
220
0.0
230
1.0
 70
    11
 71
     3
 72
    44
 73
    40
 74
     0
 42
0.0000000001
 43
0.0000000001
 40
0.0
 40
0.0
 40
0.0
 40
0.0
 40
0.1
 40
0.1
 40
0.1
 40
0.1
 40
0.2
 40
0.2
 40
0.2
 40
0.2
 40
0.3
 40
0.3
 40
0.3
 40
0.3
 40
0.4
 40
0.4
 40
0.4
 40
0.4
 40
0.5
 40
0.5
 40
0.5
 40
0.5
 40
0.6
 40
0.6
 40
0.6
 40
0.6
 40
0.7
 40
0.7
 40
0.7
 40
0.7
 40
0.7999999999999999
 40
0.7999999999999999
 40
0.7999999999999999
 40
0.7999999999999999
 40
0.8999999999999999
 40
0.8999999999999999
 40
0.8999999999999999
 40
0.8999999999999999
 40
1.0
 40
1.0
 40
1.0
 40
1.0
 10
-2.647586614173228
 20
-2.51642125984252
 30
0.0
 10
-2.659425196850394
 20
-2.504582677165355
 30
0.0
 10
-2.675783464566929
 20
-2.497255905511811
 30
0.0
 10
-2.69384251968504
 20
-2.497255905511811
 30
0.0
 10
-2.69384251968504
 20
-2.497255905511811
 30
0.0
 10
-2.711909448818898
 20
-2.497255905511811
 30
0.0
 10
-2.728271653543307
 20
-2.50457874015748
 30
0.0
 10
-2.740114173228346
 20
-2.516413385826771
 30
0.0
 10
-2.740114173228346
 20
-2.516413385826771
 30
0.0
 10
-2.740114173228346
 20
-2.516413385826771
 30
0.0
 10
-2.740106299212599
 20
-2.51642125984252
 30
0.0
 10
-2.740106299212599
 20
-2.51642125984252
 30
0.0
 10
-2.740106299212599
 20
-2.51642125984252
 30
0.0
 10
-2.751944881889764
 20
-2.528259842519685
 30
0.0
 10
-2.759271653543307
 20
-2.54461811023622
 30
0.0
 10
-2.759271653543307
 20
-2.562681102362205
 30
0.0
 10
-2.759271653543307
 20
-2.562681102362205
 30
0.0
 10
-2.759271653543307
 20
-2.580751968503937
 30
0.0
 10
-2.751948818897638
 20
-2.597114173228346
 30
0.0
 10
-2.74011811023622
 20
-2.60894094488189
 30
0.0
 10
-2.74011811023622
 20
-2.60894094488189
 30
0.0
 10
-2.74011811023622
 20
-2.60894094488189
 30
0.0
 10
-2.740102362204724
 20
-2.60894094488189
 30
0.0
 10
-2.740102362204724
 20
-2.60894094488189
 30
0.0
 10
-2.740102362204724
 20
-2.60894094488189
 30
0.0
 10
-2.728263779527559
 20
-2.620779527559055
 30
0.0
 10
-2.711905511811024
 20
-2.628106299212599
 30
0.0
 10
-2.69384251968504
 20
-2.628106299212599
 30
0.0
 10
-2.69384251968504
 20
-2.628106299212599
 30
0.0
 10
-2.675783464566929
 20
-2.628106299212599
 30
0.0
 10
-2.659425196850394
 20
-2.620779527559055
 30
0.0
 10
-2.647586614173228
 20
-2.60894094488189
 30
0.0
 10
-2.647586614173228
 20
-2.60894094488189
 30
0.0
 10
-2.635748031496063
 20
-2.597102362204724
 30
0.0
 10
-2.62842125984252
 20
-2.580744094488189
 30
0.0
 10
-2.62842125984252
 20
-2.562681102362205
 30
0.0
 10
-2.62842125984252
 20
-2.562681102362205
 30
0.0
 10
-2.62842125984252
 20
-2.54461811023622
 30
0.0
 10
-2.635748031496063
 20
-2.528259842519685
 30
0.0
 10
-2.647586614173228
 20
-2.51642125984252
 30
0.0
  0
SPLINE
  5
6F
330
1F
100
AcDbEntity
  8
Warstwa 1
 62
   250
100
AcDbSpline
210
0.0
220
0.0
230
1.0
 70
    11
 71
     3
 72
    48
 73
    44
 74
     0
 42
0.0000000001
 43
0.0000000001
 40
0.0
 40
0.0
 40
0.0
 40
0.0
 40
0.0909090909090909
 40
0.0909090909090909
 40
0.0909090909090909
 40
0.0909090909090909
 40
0.1818181818181818
 40
0.1818181818181818
 40
0.1818181818181818
 40
0.1818181818181818
 40
0.2727272727272727
 40
0.2727272727272727
 40
0.2727272727272727
 40
0.2727272727272727
 40
0.3636363636363636
 40
0.3636363636363636
 40
0.3636363636363636
 40
0.3636363636363636
 40
0.4545454545454546
 40
0.4545454545454546
 40
0.4545454545454546
 40
0.4545454545454546
 40
0.5454545454545455
 40
0.5454545454545455
 40
0.5454545454545455
 40
0.5454545454545455
 40
0.6363636363636365
 40
0.6363636363636365
 40
0.6363636363636365
 40
0.6363636363636365
 40
0.7272727272727274
 40
0.7272727272727274
 40
0.7272727272727274
 40
0.7272727272727274
 40
0.8181818181818183
 40
0.8181818181818183
 40
0.8181818181818183
 40
0.8181818181818183
 40
0.9090909090909093
 40
0.9090909090909093
 40
0.9090909090909093
 40
0.9090909090909093
 40
1.0
 40
1.0
 40
1.0
 40
1.0
 10
0.003007874015748
 20
2.893547244094488
 30
0.0
 10
0.0311456692913386
 20
2.893547244094488
 30
0.0
 10
0.0566181102362205
 20
2.88213779527559
 30
0.0
 10
0.0750551181102362
 20
2.863700787401575
 30
0.0
 10
0.0750551181102362
 20
2.863700787401575
 30
0.0
 10
0.0750551181102362
 20
2.863700787401575
 30
0.0
 10
0.0750472440944882
 20
2.863692913385827
 30
0.0
 10
0.0750472440944882
 20
2.863692913385827
 30
0.0
 10
0.0750472440944882
 20
2.863692913385827
 30
0.0
 10
0.093492125984252
 20
2.845248031496063
 30
0.0
 10
0.1049015748031496
 20
2.819771653543307
 30
0.0
 10
0.1049015748031496
 20
2.791649606299213
 30
0.0
 10
0.1049015748031496
 20
2.791649606299213
 30
0.0
 10
0.1049015748031496
 20
2.763511811023622
 30
0.0
 10
0.093492125984252
 20
2.738035433070866
 30
0.0
 10
0.0750551181102362
 20
2.719598425196851
 30
0.0
 10
0.0750551181102362
 20
2.719598425196851
 30
0.0
 10
0.0566181102362205
 20
2.701161417322834
 30
0.0
 10
0.0311417322834646
 20
2.689751968503937
 30
0.0
 10
0.003007874015748
 20
2.689751968503937
 30
0.0
 10
0.003007874015748
 20
2.689751968503937
 30
0.0
 10
-0.0251181102362205
 20
2.689751968503937
 30
0.0
 10
-0.0505905511811024
 20
2.701161417322834
 30
0.0
 10
-0.0690314960629921
 20
2.719598425196851
 30
0.0
 10
-0.0690314960629921
 20
2.719598425196851
 30
0.0
 10
-0.0690314960629921
 20
2.719598425196851
 30
0.0
 10
-0.0690472440944882
 20
2.719598425196851
 30
0.0
 10
-0.0690472440944882
 20
2.719598425196851
 30
0.0
 10
-0.0690472440944882
 20
2.719598425196851
 30
0.0
 10
-0.0874842519685039
 20
2.738035433070866
 30
0.0
 10
-0.0988937007874016
 20
2.763511811023622
 30
0.0
 10
-0.0988937007874016
 20
2.791649606299213
 30
0.0
 10
-0.0988937007874016
 20
2.791649606299213
 30
0.0
 10
-0.0988937007874016
 20
2.819787401574803
 30
0.0
 10
-0.0874842519685039
 20
2.845263779527559
 30
0.0
 10
-0.0690472440944882
 20
2.863700787401575
 30
0.0
 10
-0.0690472440944882
 20
2.863700787401575
 30
0.0
 10
-0.0690472440944882
 20
2.863700787401575
 30
0.0
 10
-0.0690314960629921
 20
2.863700787401575
 30
0.0
 10
-0.0690314960629921
 20
2.863700787401575
 30
0.0
 10
-0.0690314960629921
 20
2.863700787401575
 30
0.0
 10
-0.0505905511811024
 20
2.88213779527559
 30
0.0
 10
-0.0251181102362205
 20
2.893547244094488
 30
0.0
 10
0.003007874015748
 20
2.893547244094488
 30
0.0
  0
SPLINE
  5
70
330
1F
100
AcDbEntity
  8
Warstwa 1
 62
   250
100
AcDbSpline
210
0.0
220
0.0
230
1.0
 70
    11
 71
     3
 72
    48
 73
    44
 74
     0
 42
0.0000000001
 43
0.0000000001
 40
0.0
 40
0.0
 40
0.0
 40
0.0
 40
0.0909090909090909
 40
0.0909090909090909
 40
0.0909090909090909
 40
0.0909090909090909
 40
0.1818181818181818
 40
0.1818181818181818
 40
0.1818181818181818
 40
0.1818181818181818
 40
0.2727272727272727
 40
0.2727272727272727
 40
0.2727272727272727
 40
0.2727272727272727
 40
0.3636363636363636
 40
0.3636363636363636
 40
0.3636363636363636
 40
0.3636363636363636
 40
0.4545454545454546
 40
0.4545454545454546
 40
0.4545454545454546
 40
0.4545454545454546
 40
0.5454545454545455
 40
0.5454545454545455
 40
0.5454545454545455
 40
0.5454545454545455
 40
0.6363636363636365
 40
0.6363636363636365
 40
0.6363636363636365
 40
0.6363636363636365
 40
0.7272727272727274
 40
0.7272727272727274
 40
0.7272727272727274
 40
0.7272727272727274
 40
0.8181818181818183
 40
0.8181818181818183
 40
0.8181818181818183
 40
0.8181818181818183
 40
0.9090909090909093
 40
0.9090909090909093
 40
0.9090909090909093
 40
0.9090909090909093
 40
1.0
 40
1.0
 40
1.0
 40
1.0
 10
0.0701417322834646
 20
2.858787401574803
 30
0.0
 10
0.0529606299212598
 20
2.875968503937008
 30
0.0
 10
0.0292204724409449
 20
2.886602362204724
 30
0.0
 10
0.003007874015748
 20
2.886602362204724
 30
0.0
 10
0.003007874015748
 20
2.886602362204724
 30
0.0
 10
-0.0232125984251969
 20
2.886602362204724
 30
0.0
 10
-0.0469566929133858
 20
2.875972440944882
 30
0.0
 10
-0.0641417322834646
 20
2.858795275590551
 30
0.0
 10
-0.0641417322834646
 20
2.858795275590551
 30
0.0
 10
-0.0641417322834646
 20
2.858795275590551
 30
0.0
 10
-0.0641338582677165
 20
2.858787401574803
 30
0.0
 10
-0.0641338582677165
 20
2.858787401574803
 30
0.0
 10
-0.0641338582677165
 20
2.858787401574803
 30
0.0
 10
-0.0813149606299213
 20
2.841606299212598
 30
0.0
 10
-0.0919488188976378
 20
2.817862204724409
 30
0.0
 10
-0.0919488188976378
 20
2.791649606299213
 30
0.0
 10
-0.0919488188976378
 20
2.791649606299213
 30
0.0
 10
-0.0919488188976378
 20
2.765437007874016
 30
0.0
 10
-0.0813149606299213
 20
2.741692913385827
 30
0.0
 10
-0.0641338582677165
 20
2.724511811023622
 30
0.0
 10
-0.0641338582677165
 20
2.724511811023622
 30
0.0
 10
-0.0641338582677165
 20
2.724511811023622
 30
0.0
 10
-0.0641417322834646
 20
2.724503937007874
 30
0.0
 10
-0.0641417322834646
 20
2.724503937007874
 30
0.0
 10
-0.0641417322834646
 20
2.724503937007874
 30
0.0
 10
-0.0469566929133858
 20
2.707326771653543
 30
0.0
 10
-0.0232125984251969
 20
2.696696850393701
 30
0.0
 10
0.003007874015748
 20
2.696696850393701
 30
0.0
 10
0.003007874015748
 20
2.696696850393701
 30
0.0
 10
0.0292204724409449
 20
2.696696850393701
 30
0.0
 10
0.0529606299212598
 20
2.707330708661417
 30
0.0
 10
0.0701417322834646
 20
2.724511811023622
 30
0.0
 10
0.0701417322834646
 20
2.724511811023622
 30
0.0
 10
0.0873228346456693
 20
2.741692913385827
 30
0.0
 10
0.0979566929133858
 20
2.765437007874016
 30
0.0
 10
0.0979566929133858
 20
2.791649606299213
 30
0.0
 10
0.0979566929133858
 20
2.791649606299213
 30
0.0
 10
0.0979566929133858
 20
2.817874015748032
 30
0.0
 10
0.0873307086614173
 20
2.841618110236221
 30
0.0
 10
0.0701574803149606
 20
2.858787401574803
 30
0.0
 10
0.0701574803149606
 20
2.858787401574803
 30
0.0
 10
0.0701574803149606
 20
2.858787401574803
 30
0.0
 10
0.0701417322834646
 20
2.858787401574803
 30
0.0
 10
0.0701417322834646
 20
2.858787401574803
 30
0.0
  0
SPLINE
  5
71
330
1F
100
AcDbEntity
  8
Warstwa 1
 62
   250
100
AcDbSpline
210
0.0
220
0.0
230
1.0
 70
    11
 71
     3
 72
    48
 73
    44
 74
     0
 42
0.0000000001
 43
0.0000000001
 40
0.0
 40
0.0
 40
0.0
 40
0.0
 40
0.0909090909090909
 40
0.0909090909090909
 40
0.0909090909090909
 40
0.0909090909090909
 40
0.1818181818181818
 40
0.1818181818181818
 40
0.1818181818181818
 40
0.1818181818181818
 40
0.2727272727272727
 40
0.2727272727272727
 40
0.2727272727272727
 40
0.2727272727272727
 40
0.3636363636363636
 40
0.3636363636363636
 40
0.3636363636363636
 40
0.3636363636363636
 40
0.4545454545454546
 40
0.4545454545454546
 40
0.4545454545454546
 40
0.4545454545454546
 40
0.5454545454545455
 40
0.5454545454545455
 40
0.5454545454545455
 40
0.5454545454545455
 40
0.6363636363636365
 40
0.6363636363636365
 40
0.6363636363636365
 40
0.6363636363636365
 40
0.7272727272727274
 40
0.7272727272727274
 40
0.7272727272727274
 40
0.7272727272727274
 40
0.8181818181818183
 40
0.8181818181818183
 40
0.8181818181818183
 40
0.8181818181818183
 40
0.9090909090909093
 40
0.9090909090909093
 40
0.9090909090909093
 40
0.9090909090909093
 40
1.0
 40
1.0
 40
1.0
 40
1.0
 10
2.30615748031496
 20
2.893547244094488
 30
0.0
 10
2.334295275590551
 20
2.893547244094488
 30
0.0
 10
2.359767716535433
 20
2.88213779527559
 30
0.0
 10
2.378204724409449
 20
2.863700787401575
 30
0.0
 10
2.378204724409449
 20
2.863700787401575
 30
0.0
 10
2.378204724409449
 20
2.863700787401575
 30
0.0
 10
2.378196850393701
 20
2.863692913385827
 30
0.0
 10
2.378196850393701
 20
2.863692913385827
 30
0.0
 10
2.378196850393701
 20
2.863692913385827
 30
0.0
 10
2.396641732283465
 20
2.845248031496063
 30
0.0
 10
2.408051181102362
 20
2.819771653543307
 30
0.0
 10
2.408051181102362
 20
2.791649606299213
 30
0.0
 10
2.408051181102362
 20
2.791649606299213
 30
0.0
 10
2.408051181102362
 20
2.763511811023622
 30
0.0
 10
2.396641732283465
 20
2.738035433070866
 30
0.0
 10
2.378204724409449
 20
2.719598425196851
 30
0.0
 10
2.378204724409449
 20
2.719598425196851
 30
0.0
 10
2.359767716535433
 20
2.701161417322834
 30
0.0
 10
2.334291338582677
 20
2.689751968503937
 30
0.0
 10
2.30615748031496
 20
2.689751968503937
 30
0.0
 10
2.30615748031496
 20
2.689751968503937
 30
0.0
 10
2.278031496062992
 20
2.689751968503937
 30
0.0
 10
2.25255905511811
 20
2.701161417322834
 30
0.0
 10
2.234118110236221
 20
2.719598425196851
 30
0.0
 10
2.234118110236221
 20
2.719598425196851
 30
0.0
 10
2.234118110236221
 20
2.719598425196851
 30
0.0
 10
2.234102362204724
 20
2.719598425196851
 30
0.0
 10
2.234102362204724
 20
2.719598425196851
 30
0.0
 10
2.234102362204724
 20
2.719598425196851
 30
0.0
 10
2.215665354330709
 20
2.738035433070866
 30
0.0
 10
2.204255905511811
 20
2.763511811023622
 30
0.0
 10
2.204255905511811
 20
2.791649606299213
 30
0.0
 10
2.204255905511811
 20
2.791649606299213
 30
0.0
 10
2.204255905511811
 20
2.819787401574803
 30
0.0
 10
2.215665354330709
 20
2.845263779527559
 30
0.0
 10
2.234102362204724
 20
2.863700787401575
 30
0.0
 10
2.234102362204724
 20
2.863700787401575
 30
0.0
 10
2.234102362204724
 20
2.863700787401575
 30
0.0
 10
2.234118110236221
 20
2.863700787401575
 30
0.0
 10
2.234118110236221
 20
2.863700787401575
 30
0.0
 10
2.234118110236221
 20
2.863700787401575
 30
0.0
 10
2.25255905511811
 20
2.88213779527559
 30
0.0
 10
2.278031496062992
 20
2.893547244094488
 30
0.0
 10
2.30615748031496
 20
2.893547244094488
 30
0.0
  0
SPLINE
  5
72
330
1F
100
AcDbEntity
  8
Warstwa 1
 62
   250
100
AcDbSpline
210
0.0
220
0.0
230
1.0
 70
    11
 71
     3
 72
    48
 73
    44
 74
     0
 42
0.0000000001
 43
0.0000000001
 40
0.0
 40
0.0
 40
0.0
 40
0.0
 40
0.0909090909090909
 40
0.0909090909090909
 40
0.0909090909090909
 40
0.0909090909090909
 40
0.1818181818181818
 40
0.1818181818181818
 40
0.1818181818181818
 40
0.1818181818181818
 40
0.2727272727272727
 40
0.2727272727272727
 40
0.2727272727272727
 40
0.2727272727272727
 40
0.3636363636363636
 40
0.3636363636363636
 40
0.3636363636363636
 40
0.3636363636363636
 40
0.4545454545454546
 40
0.4545454545454546
 40
0.4545454545454546
 40
0.4545454545454546
 40
0.5454545454545455
 40
0.5454545454545455
 40
0.5454545454545455
 40
0.5454545454545455
 40
0.6363636363636365
 40
0.6363636363636365
 40
0.6363636363636365
 40
0.6363636363636365
 40
0.7272727272727274
 40
0.7272727272727274
 40
0.7272727272727274
 40
0.7272727272727274
 40
0.8181818181818183
 40
0.8181818181818183
 40
0.8181818181818183
 40
0.8181818181818183
 40
0.9090909090909093
 40
0.9090909090909093
 40
0.9090909090909093
 40
0.9090909090909093
 40
1.0
 40
1.0
 40
1.0
 40
1.0
 10
2.373291338582677
 20
2.858787401574803
 30
0.0
 10
2.356110236220472
 20
2.875968503937008
 30
0.0
 10
2.332370078740158
 20
2.886602362204724
 30
0.0
 10
2.30615748031496
 20
2.886602362204724
 30
0.0
 10
2.30615748031496
 20
2.886602362204724
 30
0.0
 10
2.279937007874016
 20
2.886602362204724
 30
0.0
 10
2.256192913385827
 20
2.875972440944882
 30
0.0
 10
2.239007874015748
 20
2.858795275590551
 30
0.0
 10
2.239007874015748
 20
2.858795275590551
 30
0.0
 10
2.239007874015748
 20
2.858795275590551
 30
0.0
 10
2.239015748031496
 20
2.858787401574803
 30
0.0
 10
2.239015748031496
 20
2.858787401574803
 30
0.0
 10
2.239015748031496
 20
2.858787401574803
 30
0.0
 10
2.221834645669291
 20
2.841606299212598
 30
0.0
 10
2.211200787401575
 20
2.817862204724409
 30
0.0
 10
2.211200787401575
 20
2.791649606299213
 30
0.0
 10
2.211200787401575
 20
2.791649606299213
 30
0.0
 10
2.211200787401575
 20
2.765437007874016
 30
0.0
 10
2.221834645669291
 20
2.741692913385827
 30
0.0
 10
2.239015748031496
 20
2.724511811023622
 30
0.0
 10
2.239015748031496
 20
2.724511811023622
 30
0.0
 10
2.239015748031496
 20
2.724511811023622
 30
0.0
 10
2.239007874015748
 20
2.724503937007874
 30
0.0
 10
2.239007874015748
 20
2.724503937007874
 30
0.0
 10
2.239007874015748
 20
2.724503937007874
 30
0.0
 10
2.256192913385827
 20
2.707326771653543
 30
0.0
 10
2.279937007874016
 20
2.696696850393701
 30
0.0
 10
2.30615748031496
 20
2.696696850393701
 30
0.0
 10
2.30615748031496
 20
2.696696850393701
 30
0.0
 10
2.332370078740158
 20
2.696696850393701
 30
0.0
 10
2.356110236220472
 20
2.707330708661417
 30
0.0
 10
2.373291338582677
 20
2.724511811023622
 30
0.0
 10
2.373291338582677
 20
2.724511811023622
 30
0.0
 10
2.390472440944882
 20
2.741692913385827
 30
0.0
 10
2.401106299212598
 20
2.765437007874016
 30
0.0
 10
2.401106299212598
 20
2.791649606299213
 30
0.0
 10
2.401106299212598
 20
2.791649606299213
 30
0.0
 10
2.401106299212598
 20
2.817874015748032
 30
0.0
 10
2.39048031496063
 20
2.841618110236221
 30
0.0
 10
2.373307086614173
 20
2.858787401574803
 30
0.0
 10
2.373307086614173
 20
2.858787401574803
 30
0.0
 10
2.373307086614173
 20
2.858787401574803
 30
0.0
 10
2.373291338582677
 20
2.858787401574803
 30
0.0
 10
2.373291338582677
 20
2.858787401574803
 30
0.0
  0
SPLINE
  5
73
330
1F
100
AcDbEntity
  8
Warstwa 1
 62
   250
100
AcDbSpline
210
0.0
220
0.0
230
1.0
 70
    11
 71
     3
 72
    48
 73
    44
 74
     0
 42
0.0000000001
 43
0.0000000001
 40
0.0
 40
0.0
 40
0.0
 40
0.0
 40
0.0909090909090909
 40
0.0909090909090909
 40
0.0909090909090909
 40
0.0909090909090909
 40
0.1818181818181818
 40
0.1818181818181818
 40
0.1818181818181818
 40
0.1818181818181818
 40
0.2727272727272727
 40
0.2727272727272727
 40
0.2727272727272727
 40
0.2727272727272727
 40
0.3636363636363636
 40
0.3636363636363636
 40
0.3636363636363636
 40
0.3636363636363636
 40
0.4545454545454546
 40
0.4545454545454546
 40
0.4545454545454546
 40
0.4545454545454546
 40
0.5454545454545455
 40
0.5454545454545455
 40
0.5454545454545455
 40
0.5454545454545455
 40
0.6363636363636365
 40
0.6363636363636365
 40
0.6363636363636365
 40
0.6363636363636365
 40
0.7272727272727274
 40
0.7272727272727274
 40
0.7272727272727274
 40
0.7272727272727274
 40
0.8181818181818183
 40
0.8181818181818183
 40
0.8181818181818183
 40
0.8181818181818183
 40
0.9090909090909093
 40
0.9090909090909093
 40
0.9090909090909093
 40
0.9090909090909093
 40
1.0
 40
1.0
 40
1.0
 40
1.0
 10
0.003007874015748
 20
-2.815114173228347
 30
0.0
 10
0.0311456692913386
 20
-2.815114173228347
 30
0.0
 10
0.0566181102362205
 20
-2.826523622047244
 30
0.0
 10
0.0750551181102362
 20
-2.84496062992126
 30
0.0
 10
0.0750551181102362
 20
-2.84496062992126
 30
0.0
 10
0.0750551181102362
 20
-2.84496062992126
 30
0.0
 10
0.0750472440944882
 20
-2.844968503937008
 30
0.0
 10
0.0750472440944882
 20
-2.844968503937008
 30
0.0
 10
0.0750472440944882
 20
-2.844968503937008
 30
0.0
 10
0.093492125984252
 20
-2.863413385826772
 30
0.0
 10
0.1049015748031496
 20
-2.888889763779527
 30
0.0
 10
0.1049015748031496
 20
-2.917011811023622
 30
0.0
 10
0.1049015748031496
 20
-2.917011811023622
 30
0.0
 10
0.1049015748031496
 20
-2.945149606299212
 30
0.0
 10
0.093492125984252
 20
-2.970625984251968
 30
0.0
 10
0.0750551181102362
 20
-2.989062992125984
 30
0.0
 10
0.0750551181102362
 20
-2.989062992125984
 30
0.0
 10
0.0566181102362205
 20
-3.0075
 30
0.0
 10
0.0311417322834646
 20
-3.018909448818897
 30
0.0
 10
0.003007874015748
 20
-3.018909448818897
 30
0.0
 10
0.003007874015748
 20
-3.018909448818897
 30
0.0
 10
-0.0251181102362205
 20
-3.018909448818897
 30
0.0
 10
-0.0505905511811024
 20
-3.0075
 30
0.0
 10
-0.0690314960629921
 20
-2.989062992125984
 30
0.0
 10
-0.0690314960629921
 20
-2.989062992125984
 30
0.0
 10
-0.0690314960629921
 20
-2.989062992125984
 30
0.0
 10
-0.0690472440944882
 20
-2.989062992125984
 30
0.0
 10
-0.0690472440944882
 20
-2.989062992125984
 30
0.0
 10
-0.0690472440944882
 20
-2.989062992125984
 30
0.0
 10
-0.0874842519685039
 20
-2.970625984251968
 30
0.0
 10
-0.0988937007874016
 20
-2.945149606299212
 30
0.0
 10
-0.0988937007874016
 20
-2.917011811023622
 30
0.0
 10
-0.0988937007874016
 20
-2.917011811023622
 30
0.0
 10
-0.0988937007874016
 20
-2.888874015748032
 30
0.0
 10
-0.0874842519685039
 20
-2.863397637795276
 30
0.0
 10
-0.0690472440944882
 20
-2.84496062992126
 30
0.0
 10
-0.0690472440944882
 20
-2.84496062992126
 30
0.0
 10
-0.0690472440944882
 20
-2.84496062992126
 30
0.0
 10
-0.0690314960629921
 20
-2.84496062992126
 30
0.0
 10
-0.0690314960629921
 20
-2.84496062992126
 30
0.0
 10
-0.0690314960629921
 20
-2.84496062992126
 30
0.0
 10
-0.0505905511811024
 20
-2.826523622047244
 30
0.0
 10
-0.0251181102362205
 20
-2.815114173228347
 30
0.0
 10
0.003007874015748
 20
-2.815114173228347
 30
0.0
  0
SPLINE
  5
74
330
1F
100
AcDbEntity
  8
Warstwa 1
 62
   250
100
AcDbSpline
210
0.0
220
0.0
230
1.0
 70
    11
 71
     3
 72
    48
 73
    44
 74
     0
 42
0.0000000001
 43
0.0000000001
 40
0.0
 40
0.0
 40
0.0
 40
0.0
 40
0.0909090909090909
 40
0.0909090909090909
 40
0.0909090909090909
 40
0.0909090909090909
 40
0.1818181818181818
 40
0.1818181818181818
 40
0.1818181818181818
 40
0.1818181818181818
 40
0.2727272727272727
 40
0.2727272727272727
 40
0.2727272727272727
 40
0.2727272727272727
 40
0.3636363636363636
 40
0.3636363636363636
 40
0.3636363636363636
 40
0.3636363636363636
 40
0.4545454545454546
 40
0.4545454545454546
 40
0.4545454545454546
 40
0.4545454545454546
 40
0.5454545454545455
 40
0.5454545454545455
 40
0.5454545454545455
 40
0.5454545454545455
 40
0.6363636363636365
 40
0.6363636363636365
 40
0.6363636363636365
 40
0.6363636363636365
 40
0.7272727272727274
 40
0.7272727272727274
 40
0.7272727272727274
 40
0.7272727272727274
 40
0.8181818181818183
 40
0.8181818181818183
 40
0.8181818181818183
 40
0.8181818181818183
 40
0.9090909090909093
 40
0.9090909090909093
 40
0.9090909090909093
 40
0.9090909090909093
 40
1.0
 40
1.0
 40
1.0
 40
1.0
 10
0.0701417322834646
 20
-2.849874015748032
 30
0.0
 10
0.0529606299212598
 20
-2.832692913385827
 30
0.0
 10
0.0292204724409449
 20
-2.82205905511811
 30
0.0
 10
0.003007874015748
 20
-2.82205905511811
 30
0.0
 10
0.003007874015748
 20
-2.82205905511811
 30
0.0
 10
-0.0232125984251969
 20
-2.82205905511811
 30
0.0
 10
-0.0469566929133858
 20
-2.832688976377953
 30
0.0
 10
-0.0641417322834646
 20
-2.849866141732283
 30
0.0
 10
-0.0641417322834646
 20
-2.849866141732283
 30
0.0
 10
-0.0641417322834646
 20
-2.849866141732283
 30
0.0
 10
-0.0641338582677165
 20
-2.849874015748032
 30
0.0
 10
-0.0641338582677165
 20
-2.849874015748032
 30
0.0
 10
-0.0641338582677165
 20
-2.849874015748032
 30
0.0
 10
-0.0813149606299213
 20
-2.867055118110236
 30
0.0
 10
-0.0919488188976378
 20
-2.890799212598425
 30
0.0
 10
-0.0919488188976378
 20
-2.917011811023622
 30
0.0
 10
-0.0919488188976378
 20
-2.917011811023622
 30
0.0
 10
-0.0919488188976378
 20
-2.943224409448819
 30
0.0
 10
-0.0813149606299213
 20
-2.966968503937008
 30
0.0
 10
-0.0641338582677165
 20
-2.984149606299213
 30
0.0
 10
-0.0641338582677165
 20
-2.984149606299213
 30
0.0
 10
-0.0641338582677165
 20
-2.984149606299213
 30
0.0
 10
-0.0641417322834646
 20
-2.98415748031496
 30
0.0
 10
-0.0641417322834646
 20
-2.98415748031496
 30
0.0
 10
-0.0641417322834646
 20
-2.98415748031496
 30
0.0
 10
-0.0469566929133858
 20
-3.001334645669291
 30
0.0
 10
-0.0232125984251969
 20
-3.011964566929134
 30
0.0
 10
0.003007874015748
 20
-3.011964566929134
 30
0.0
 10
0.003007874015748
 20
-3.011964566929134
 30
0.0
 10
0.0292204724409449
 20
-3.011964566929134
 30
0.0
 10
0.0529606299212598
 20
-3.001330708661417
 30
0.0
 10
0.0701417322834646
 20
-2.984149606299213
 30
0.0
 10
0.0701417322834646
 20
-2.984149606299213
 30
0.0
 10
0.0873228346456693
 20
-2.966968503937008
 30
0.0
 10
0.0979566929133858
 20
-2.943224409448819
 30
0.0
 10
0.0979566929133858
 20
-2.917011811023622
 30
0.0
 10
0.0979566929133858
 20
-2.917011811023622
 30
0.0
 10
0.0979566929133858
 20
-2.890787401574803
 30
0.0
 10
0.0873307086614173
 20
-2.867043307086614
 30
0.0
 10
0.0701574803149606
 20
-2.849874015748032
 30
0.0
 10
0.0701574803149606
 20
-2.849874015748032
 30
0.0
 10
0.0701574803149606
 20
-2.849874015748032
 30
0.0
 10
0.0701417322834646
 20
-2.849874015748032
 30
0.0
 10
0.0701417322834646
 20
-2.849874015748032
 30
0.0
  0
SPLINE
  5
75
330
1F
100
AcDbEntity
  8
Warstwa 1
 62
   250
100
AcDbSpline
210
0.0
220
0.0
230
1.0
 70
    11
 71
     3
 72
    48
 73
    44
 74
     0
 42
0.0000000001
 43
0.0000000001
 40
0.0
 40
0.0
 40
0.0
 40
0.0
 40
0.0909090909090909
 40
0.0909090909090909
 40
0.0909090909090909
 40
0.0909090909090909
 40
0.1818181818181818
 40
0.1818181818181818
 40
0.1818181818181818
 40
0.1818181818181818
 40
0.2727272727272727
 40
0.2727272727272727
 40
0.2727272727272727
 40
0.2727272727272727
 40
0.3636363636363636
 40
0.3636363636363636
 40
0.3636363636363636
 40
0.3636363636363636
 40
0.4545454545454546
 40
0.4545454545454546
 40
0.4545454545454546
 40
0.4545454545454546
 40
0.5454545454545455
 40
0.5454545454545455
 40
0.5454545454545455
 40
0.5454545454545455
 40
0.6363636363636365
 40
0.6363636363636365
 40
0.6363636363636365
 40
0.6363636363636365
 40
0.7272727272727274
 40
0.7272727272727274
 40
0.7272727272727274
 40
0.7272727272727274
 40
0.8181818181818183
 40
0.8181818181818183
 40
0.8181818181818183
 40
0.8181818181818183
 40
0.9090909090909093
 40
0.9090909090909093
 40
0.9090909090909093
 40
0.9090909090909093
 40
1.0
 40
1.0
 40
1.0
 40
1.0
 10
2.30615748031496
 20
-2.815114173228347
 30
0.0
 10
2.334295275590551
 20
-2.815114173228347
 30
0.0
 10
2.359767716535433
 20
-2.826523622047244
 30
0.0
 10
2.378204724409449
 20
-2.84496062992126
 30
0.0
 10
2.378204724409449
 20
-2.84496062992126
 30
0.0
 10
2.378204724409449
 20
-2.84496062992126
 30
0.0
 10
2.378196850393701
 20
-2.844968503937008
 30
0.0
 10
2.378196850393701
 20
-2.844968503937008
 30
0.0
 10
2.378196850393701
 20
-2.844968503937008
 30
0.0
 10
2.396641732283465
 20
-2.863413385826772
 30
0.0
 10
2.408051181102362
 20
-2.888889763779527
 30
0.0
 10
2.408051181102362
 20
-2.917011811023622
 30
0.0
 10
2.408051181102362
 20
-2.917011811023622
 30
0.0
 10
2.408051181102362
 20
-2.945149606299212
 30
0.0
 10
2.396641732283465
 20
-2.970625984251968
 30
0.0
 10
2.378204724409449
 20
-2.989062992125984
 30
0.0
 10
2.378204724409449
 20
-2.989062992125984
 30
0.0
 10
2.359767716535433
 20
-3.0075
 30
0.0
 10
2.334291338582677
 20
-3.018909448818897
 30
0.0
 10
2.30615748031496
 20
-3.018909448818897
 30
0.0
 10
2.30615748031496
 20
-3.018909448818897
 30
0.0
 10
2.278031496062992
 20
-3.018909448818897
 30
0.0
 10
2.25255905511811
 20
-3.0075
 30
0.0
 10
2.234118110236221
 20
-2.989062992125984
 30
0.0
 10
2.234118110236221
 20
-2.989062992125984
 30
0.0
 10
2.234118110236221
 20
-2.989062992125984
 30
0.0
 10
2.234102362204724
 20
-2.989062992125984
 30
0.0
 10
2.234102362204724
 20
-2.989062992125984
 30
0.0
 10
2.234102362204724
 20
-2.989062992125984
 30
0.0
 10
2.215665354330709
 20
-2.970625984251968
 30
0.0
 10
2.204255905511811
 20
-2.945149606299212
 30
0.0
 10
2.204255905511811
 20
-2.917011811023622
 30
0.0
 10
2.204255905511811
 20
-2.917011811023622
 30
0.0
 10
2.204255905511811
 20
-2.888874015748032
 30
0.0
 10
2.215665354330709
 20
-2.863397637795276
 30
0.0
 10
2.234102362204724
 20
-2.84496062992126
 30
0.0
 10
2.234102362204724
 20
-2.84496062992126
 30
0.0
 10
2.234102362204724
 20
-2.84496062992126
 30
0.0
 10
2.234118110236221
 20
-2.84496062992126
 30
0.0
 10
2.234118110236221
 20
-2.84496062992126
 30
0.0
 10
2.234118110236221
 20
-2.84496062992126
 30
0.0
 10
2.25255905511811
 20
-2.826523622047244
 30
0.0
 10
2.278031496062992
 20
-2.815114173228347
 30
0.0
 10
2.30615748031496
 20
-2.815114173228347
 30
0.0
  0
SPLINE
  5
76
330
1F
100
AcDbEntity
  8
Warstwa 1
 62
   250
100
AcDbSpline
210
0.0
220
0.0
230
1.0
 70
    11
 71
     3
 72
    48
 73
    44
 74
     0
 42
0.0000000001
 43
0.0000000001
 40
0.0
 40
0.0
 40
0.0
 40
0.0
 40
0.0909090909090909
 40
0.0909090909090909
 40
0.0909090909090909
 40
0.0909090909090909
 40
0.1818181818181818
 40
0.1818181818181818
 40
0.1818181818181818
 40
0.1818181818181818
 40
0.2727272727272727
 40
0.2727272727272727
 40
0.2727272727272727
 40
0.2727272727272727
 40
0.3636363636363636
 40
0.3636363636363636
 40
0.3636363636363636
 40
0.3636363636363636
 40
0.4545454545454546
 40
0.4545454545454546
 40
0.4545454545454546
 40
0.4545454545454546
 40
0.5454545454545455
 40
0.5454545454545455
 40
0.5454545454545455
 40
0.5454545454545455
 40
0.6363636363636365
 40
0.6363636363636365
 40
0.6363636363636365
 40
0.6363636363636365
 40
0.7272727272727274
 40
0.7272727272727274
 40
0.7272727272727274
 40
0.7272727272727274
 40
0.8181818181818183
 40
0.8181818181818183
 40
0.8181818181818183
 40
0.8181818181818183
 40
0.9090909090909093
 40
0.9090909090909093
 40
0.9090909090909093
 40
0.9090909090909093
 40
1.0
 40
1.0
 40
1.0
 40
1.0
 10
2.373291338582677
 20
-2.849874015748032
 30
0.0
 10
2.356110236220472
 20
-2.832692913385827
 30
0.0
 10
2.332370078740158
 20
-2.82205905511811
 30
0.0
 10
2.30615748031496
 20
-2.82205905511811
 30
0.0
 10
2.30615748031496
 20
-2.82205905511811
 30
0.0
 10
2.279937007874016
 20
-2.82205905511811
 30
0.0
 10
2.256192913385827
 20
-2.832688976377953
 30
0.0
 10
2.239007874015748
 20
-2.849866141732283
 30
0.0
 10
2.239007874015748
 20
-2.849866141732283
 30
0.0
 10
2.239007874015748
 20
-2.849866141732283
 30
0.0
 10
2.239015748031496
 20
-2.849874015748032
 30
0.0
 10
2.239015748031496
 20
-2.849874015748032
 30
0.0
 10
2.239015748031496
 20
-2.849874015748032
 30
0.0
 10
2.221834645669291
 20
-2.867055118110236
 30
0.0
 10
2.211200787401575
 20
-2.890799212598425
 30
0.0
 10
2.211200787401575
 20
-2.917011811023622
 30
0.0
 10
2.211200787401575
 20
-2.917011811023622
 30
0.0
 10
2.211200787401575
 20
-2.943224409448819
 30
0.0
 10
2.221834645669291
 20
-2.966968503937008
 30
0.0
 10
2.239015748031496
 20
-2.984149606299213
 30
0.0
 10
2.239015748031496
 20
-2.984149606299213
 30
0.0
 10
2.239015748031496
 20
-2.984149606299213
 30
0.0
 10
2.239007874015748
 20
-2.98415748031496
 30
0.0
 10
2.239007874015748
 20
-2.98415748031496
 30
0.0
 10
2.239007874015748
 20
-2.98415748031496
 30
0.0
 10
2.256192913385827
 20
-3.001334645669291
 30
0.0
 10
2.279937007874016
 20
-3.011964566929134
 30
0.0
 10
2.30615748031496
 20
-3.011964566929134
 30
0.0
 10
2.30615748031496
 20
-3.011964566929134
 30
0.0
 10
2.332370078740158
 20
-3.011964566929134
 30
0.0
 10
2.356110236220472
 20
-3.001330708661417
 30
0.0
 10
2.373291338582677
 20
-2.984149606299213
 30
0.0
 10
2.373291338582677
 20
-2.984149606299213
 30
0.0
 10
2.390472440944882
 20
-2.966968503937008
 30
0.0
 10
2.401106299212598
 20
-2.943224409448819
 30
0.0
 10
2.401106299212598
 20
-2.917011811023622
 30
0.0
 10
2.401106299212598
 20
-2.917011811023622
 30
0.0
 10
2.401106299212598
 20
-2.890787401574803
 30
0.0
 10
2.39048031496063
 20
-2.867043307086614
 30
0.0
 10
2.373307086614173
 20
-2.849874015748032
 30
0.0
 10
2.373307086614173
 20
-2.849874015748032
 30
0.0
 10
2.373307086614173
 20
-2.849874015748032
 30
0.0
 10
2.373291338582677
 20
-2.849874015748032
 30
0.0
 10
2.373291338582677
 20
-2.849874015748032
 30
0.0
  0
SPLINE
  5
77
330
1F
100
AcDbEntity
  8
Warstwa 1
 62
   250
100
AcDbSpline
210
0.0
220
0.0
230
1.0
 70
    11
 71
     3
 72
    44
 73
    40
 74
     0
 42
0.0000000001
 43
0.0000000001
 40
0.0
 40
0.0
 40
0.0
 40
0.0
 40
0.1
 40
0.1
 40
0.1
 40
0.1
 40
0.2
 40
0.2
 40
0.2
 40
0.2
 40
0.3
 40
0.3
 40
0.3
 40
0.3
 40
0.4
 40
0.4
 40
0.4
 40
0.4
 40
0.5
 40
0.5
 40
0.5
 40
0.5
 40
0.6
 40
0.6
 40
0.6
 40
0.6
 40
0.7
 40
0.7
 40
0.7
 40
0.7
 40
0.7999999999999999
 40
0.7999999999999999
 40
0.7999999999999999
 40
0.7999999999999999
 40
0.8999999999999999
 40
0.8999999999999999
 40
0.8999999999999999
 40
0.8999999999999999
 40
1.0
 40
1.0
 40
1.0
 40
1.0
 10
-1.315889763779527
 20
2.844334645669291
 30
0.0
 10
-1.295909448818898
 20
2.844334645669291
 30
0.0
 10
-1.277814960629921
 20
2.836232283464567
 30
0.0
 10
-1.264720472440945
 20
2.823137795275591
 30
0.0
 10
-1.264720472440945
 20
2.823137795275591
 30
0.0
 10
-1.251625984251969
 20
2.810043307086614
 30
0.0
 10
-1.243523622047244
 20
2.791944881889764
 30
0.0
 10
-1.243523622047244
 20
2.771964566929134
 30
0.0
 10
-1.243523622047244
 20
2.771964566929134
 30
0.0
 10
-1.243523622047244
 20
2.751984251968504
 30
0.0
 10
-1.251625984251969
 20
2.733885826771654
 30
0.0
 10
-1.264720472440945
 20
2.720791338582677
 30
0.0
 10
-1.264720472440945
 20
2.720791338582677
 30
0.0
 10
-1.277814960629921
 20
2.707696850393701
 30
0.0
 10
-1.295917322834646
 20
2.699594488188976
 30
0.0
 10
-1.315889763779527
 20
2.699594488188976
 30
0.0
 10
-1.315889763779527
 20
2.699594488188976
 30
0.0
 10
-1.335870078740157
 20
2.699594488188976
 30
0.0
 10
-1.353968503937008
 20
2.707696850393701
 30
0.0
 10
-1.367062992125984
 20
2.720791338582677
 30
0.0
 10
-1.367062992125984
 20
2.720791338582677
 30
0.0
 10
-1.367062992125984
 20
2.720791338582677
 30
0.0
 10
-1.367055118110236
 20
2.720799212598425
 30
0.0
 10
-1.367055118110236
 20
2.720799212598425
 30
0.0
 10
-1.367055118110236
 20
2.720799212598425
 30
0.0
 10
-1.380157480314961
 20
2.733901574803149
 30
0.0
 10
-1.388263779527559
 20
2.751996062992126
 30
0.0
 10
-1.388263779527559
 20
2.771964566929134
 30
0.0
 10
-1.388263779527559
 20
2.771964566929134
 30
0.0
 10
-1.388263779527559
 20
2.791944881889764
 30
0.0
 10
-1.380161417322835
 20
2.810043307086614
 30
0.0
 10
-1.367066929133858
 20
2.823137795275591
 30
0.0
 10
-1.367066929133858
 20
2.823137795275591
 30
0.0
 10
-1.367066929133858
 20
2.823137795275591
 30
0.0
 10
-1.367051181102362
 20
2.823137795275591
 30
0.0
 10
-1.367051181102362
 20
2.823137795275591
 30
0.0
 10
-1.367051181102362
 20
2.823137795275591
 30
0.0
 10
-1.353956692913386
 20
2.836228346456693
 30
0.0
 10
-1.33586220472441
 20
2.844334645669291
 30
0.0
 10
-1.315889763779527
 20
2.844334645669291
 30
0.0
  0
SPLINE
  5
78
330
1F
100
AcDbEntity
  8
Warstwa 1
 62
   250
100
AcDbSpline
210
0.0
220
0.0
230
1.0
 70
    11
 71
     3
 72
    44
 73
    40
 74
     0
 42
0.0000000001
 43
0.0000000001
 40
0.0
 40
0.0
 40
0.0
 40
0.0
 40
0.1
 40
0.1
 40
0.1
 40
0.1
 40
0.2
 40
0.2
 40
0.2
 40
0.2
 40
0.3
 40
0.3
 40
0.3
 40
0.3
 40
0.4
 40
0.4
 40
0.4
 40
0.4
 40
0.5
 40
0.5
 40
0.5
 40
0.5
 40
0.6
 40
0.6
 40
0.6
 40
0.6
 40
0.7
 40
0.7
 40
0.7
 40
0.7
 40
0.7999999999999999
 40
0.7999999999999999
 40
0.7999999999999999
 40
0.7999999999999999
 40
0.8999999999999999
 40
0.8999999999999999
 40
0.8999999999999999
 40
0.8999999999999999
 40
1.0
 40
1.0
 40
1.0
 40
1.0
 10
-1.269633858267716
 20
2.818224409448819
 30
0.0
 10
-1.281472440944882
 20
2.830062992125984
 30
0.0
 10
-1.297830708661417
 20
2.837389763779528
 30
0.0
 10
-1.315889763779527
 20
2.837389763779528
 30
0.0
 10
-1.315889763779527
 20
2.837389763779528
 30
0.0
 10
-1.333956692913386
 20
2.837389763779528
 30
0.0
 10
-1.350318897637795
 20
2.830066929133858
 30
0.0
 10
-1.362161417322835
 20
2.818232283464567
 30
0.0
 10
-1.362161417322835
 20
2.818232283464567
 30
0.0
 10
-1.362161417322835
 20
2.818232283464567
 30
0.0
 10
-1.362153543307087
 20
2.818224409448819
 30
0.0
 10
-1.362153543307087
 20
2.818224409448819
 30
0.0
 10
-1.362153543307087
 20
2.818224409448819
 30
0.0
 10
-1.373992125984252
 20
2.806385826771653
 30
0.0
 10
-1.381318897637795
 20
2.790027559055118
 30
0.0
 10
-1.381318897637795
 20
2.771964566929134
 30
0.0
 10
-1.381318897637795
 20
2.771964566929134
 30
0.0
 10
-1.381318897637795
 20
2.753893700787402
 30
0.0
 10
-1.373996062992126
 20
2.737531496062992
 30
0.0
 10
-1.362165354330709
 20
2.725704724409449
 30
0.0
 10
-1.362165354330709
 20
2.725704724409449
 30
0.0
 10
-1.362165354330709
 20
2.725704724409449
 30
0.0
 10
-1.362149606299213
 20
2.725704724409449
 30
0.0
 10
-1.362149606299213
 20
2.725704724409449
 30
0.0
 10
-1.362149606299213
 20
2.725704724409449
 30
0.0
 10
-1.350311023622047
 20
2.713866141732284
 30
0.0
 10
-1.333952755905512
 20
2.70653937007874
 30
0.0
 10
-1.315889763779527
 20
2.70653937007874
 30
0.0
 10
-1.315889763779527
 20
2.70653937007874
 30
0.0
 10
-1.297830708661417
 20
2.70653937007874
 30
0.0
 10
-1.281472440944882
 20
2.713866141732284
 30
0.0
 10
-1.269633858267716
 20
2.725704724409449
 30
0.0
 10
-1.269633858267716
 20
2.725704724409449
 30
0.0
 10
-1.257795275590551
 20
2.737543307086614
 30
0.0
 10
-1.250468503937008
 20
2.753901574803149
 30
0.0
 10
-1.250468503937008
 20
2.771964566929134
 30
0.0
 10
-1.250468503937008
 20
2.771964566929134
 30
0.0
 10
-1.250468503937008
 20
2.790027559055118
 30
0.0
 10
-1.257795275590551
 20
2.806385826771653
 30
0.0
 10
-1.269633858267716
 20
2.818224409448819
 30
0.0
  0
ENDSEC
  0
SECTION
  2
OBJECTS
  0
DICTIONARY
  5
C
330
0
100
AcDbDictionary
281
     1
  3
ACAD_GROUP
350
D
  3
ACAD_LAYOUT
350
1A
  3
ACAD_MLEADERSTYLE
350
7A
  3
ACAD_MLINESTYLE
350
17
  3
ACAD_PLOTSETTINGS
350
19
  3
ACAD_PLOTSTYLENAME
350
E
  3
ACAD_SCALELIST
350
3B
  3
ACAD_TABLESTYLE
350
79
  3
ACAD_VISUALSTYLE
350
2A
  0
DICTIONARY
  5
D
102
{ACAD_REACTORS
330
C
102
}
330
C
100
AcDbDictionary
281
     1
  0
DICTIONARY
  5
1A
102
{ACAD_REACTORS
330
C
102
}
330
C
100
AcDbDictionary
281
     1
  3
Layout1
350
1E
  3
Layout2
350
26
  3
Model
350
22
  0
DICTIONARY
  5
7A
102
{ACAD_REACTORS
330
C
102
}
330
C
100
AcDbDictionary
281
     1
  0
DICTIONARY
  5
17
102
{ACAD_REACTORS
330
C
102
}
330
C
100
AcDbDictionary
281
     1
  3
Standard
350
18
  0
DICTIONARY
  5
19
102
{ACAD_REACTORS
330
C
102
}
330
C
100
AcDbDictionary
281
     1
  0
ACDBDICTIONARYWDFLT
  5
E
102
{ACAD_REACTORS
330
C
102
}
330
C
100
AcDbDictionary
281
     1
  3
Normal
350
F
100
AcDbDictionaryWithDefault
340
F
  0
DICTIONARY
  5
3B
102
{ACAD_REACTORS
330
C
102
}
330
C
100
AcDbDictionary
281
     1
  3
A0
350
3C
  3
A1
350
3D
  3
A2
350
3E
  3
A3
350
3F
  3
A4
350
40
  3
A5
350
41
  3
A6
350
42
  3
A7
350
43
  3
A8
350
44
  3
A9
350
45
  3
B0
350
46
  3
B1
350
47
  3
B2
350
48
  3
B3
350
49
  3
B4
350
4A
  3
B5
350
4B
  3
B6
350
4C
  3
B7
350
4D
  3
B8
350
4E
  3
B9
350
4F
  3
C0
350
50
  3
C1
350
51
  3
C2
350
52
  3
C3
350
53
  3
C4
350
54
  3
C5
350
55
  3
C6
350
56
  3
C7
350
57
  3
C8
350
58
  3
C9
350
59
  3
D0
350
5A
  3
D1
350
5B
  3
D2
350
5C
  0
DICTIONARY
  5
79
102
{ACAD_REACTORS
330
C
102
}
330
C
100
AcDbDictionary
281
     1
  0
DICTIONARY
  5
2A
102
{ACAD_REACTORS
330
C
102
}
330
C
100
AcDbDictionary
281
     1
  3
2dWireframe
350
2F
  3
3D Hidden
350
31
  3
3dWireframe
350
30
  3
Basic
350
32
  3
Brighten
350
36
  3
ColorChange
350
3A
  3
Conceptual
350
34
  3
Dim
350
35
  3
Facepattern
350
39
  3
Flat
350
2B
  3
FlatWithEdges
350
2C
  3
Gouraud
350
2D
  3
GouraudWithEdges
350
2E
  3
Linepattern
350
38
  3
Realistic
350
33
  3
Thicken
350
37
  0
LAYOUT
  5
1E
102
{ACAD_REACTORS
330
1A
102
}
330
1A
100
AcDbPlotSettings
  1

  2
none_device
  4

  6

 40
0.0
 41
0.0
 42
0.0
 43
0.0
 44
0.0
 45
0.0
 46
0.0
 47
0.0
 48
0.0
 49
0.0
140
0.0
141
0.0
142
1.0
143
1.0
 70
   688
 72
     0
 73
     0
 74
     5
  7

 75
    16
 76
     0
 77
     2
 78
   300
147
1.0
148
0.0
149
0.0
100
AcDbLayout
  1
Layout1
 70
     1
 71
     1
 10
0.0
 20
0.0
 11
12.0
 21
9.0
 12
0.0
 22
0.0
 32
0.0
 14
1.000000000000000E+20
 24
1.000000000000000E+20
 34
1.000000000000000E+20
 15
-1.000000000000000E+20
 25
-1.000000000000000E+20
 35
-1.000000000000000E+20
146
0.0
 13
0.0
 23
0.0
 33
0.0
 16
1.0
 26
0.0
 36
0.0
 17
0.0
 27
1.0
 37
0.0
 76
     0
330
1B
  0
LAYOUT
  5
26
102
{ACAD_REACTORS
330
1A
102
}
330
1A
100
AcDbPlotSettings
  1

  2
none_device
  4

  6

 40
0.0
 41
0.0
 42
0.0
 43
0.0
 44
0.0
 45
0.0
 46
0.0
 47
0.0
 48
0.0
 49
0.0
140
0.0
141
0.0
142
1.0
143
1.0
 70
   688
 72
     0
 73
     0
 74
     5
  7

 75
    16
 76
     0
 77
     2
 78
   300
147
1.0
148
0.0
149
0.0
100
AcDbLayout
  1
Layout2
 70
     1
 71
     2
 10
0.0
 20
0.0
 11
0.0
 21
0.0
 12
0.0
 22
0.0
 32
0.0
 14
0.0
 24
0.0
 34
0.0
 15
0.0
 25
0.0
 35
0.0
146
0.0
 13
0.0
 23
0.0
 33
0.0
 16
1.0
 26
0.0
 36
0.0
 17
0.0
 27
1.0
 37
0.0
 76
     0
330
23
  0
LAYOUT
  5
22
102
{ACAD_REACTORS
330
1A
102
}
330
1A
100
AcDbPlotSettings
  1

  2
none_device
  4

  6

 40
0.0
 41
0.0
 42
0.0
 43
0.0
 44
0.0
 45
0.0
 46
0.0
 47
0.0
 48
0.0
 49
0.0
140
0.0
141
0.0
142
1.0
143
1.0
 70
  1712
 72
     0
 73
     0
 74
     0
  7

 75
     0
 76
     0
 77
     2
 78
   300
147
1.0
148
0.0
149
0.0
100
AcDbLayout
  1
Model
 70
     1
 71
     0
 10
0.0
 20
0.0
 11
12.0
 21
9.0
 12
0.0
 22
0.0
 32
0.0
 14
-3.287870078740157
 24
-3.097633858267717
 34
0.0
 15
2.981122047244094
 25
2.972350393700788
 35
0.0
146
0.0
 13
0.0
 23
0.0
 33
0.0
 16
1.0
 26
0.0
 36
0.0
 17
0.0
 27
1.0
 37
0.0
 76
     0
330
1F
331
29
  0
MLINESTYLE
  5
18
102
{ACAD_REACTORS
330
17
102
}
330
17
100
AcDbMlineStyle
  2
Standard
 70
     0
  3

 62
   256
 51
90.0
 52
90.0
 71
     2
 49
0.5
 62
   256
  6
BYLAYER
 49
-0.5
 62
   256
  6
BYLAYER
  0
ACDBPLACEHOLDER
  5
F
102
{ACAD_REACTORS
330
E
102
}
330
E
  0
SCALE
  5
3C
102
{ACAD_REACTORS
330
3B
102
}
330
3B
100
AcDbScale
 70
     0
300
1:1
140
1.0
141
1.0
290
     1
  0
SCALE
  5
3D
102
{ACAD_REACTORS
330
3B
102
}
330
3B
100
AcDbScale
 70
     0
300
1:2
140
1.0
141
2.0
290
     0
  0
SCALE
  5
3E
102
{ACAD_REACTORS
330
3B
102
}
330
3B
100
AcDbScale
 70
     0
300
1:4
140
1.0
141
4.0
290
     0
  0
SCALE
  5
3F
102
{ACAD_REACTORS
330
3B
102
}
330
3B
100
AcDbScale
 70
     0
300
1:5
140
1.0
141
5.0
290
     0
  0
SCALE
  5
40
102
{ACAD_REACTORS
330
3B
102
}
330
3B
100
AcDbScale
 70
     0
300
1:8
140
1.0
141
8.0
290
     0
  0
SCALE
  5
41
102
{ACAD_REACTORS
330
3B
102
}
330
3B
100
AcDbScale
 70
     0
300
1:10
140
1.0
141
10.0
290
     0
  0
SCALE
  5
42
102
{ACAD_REACTORS
330
3B
102
}
330
3B
100
AcDbScale
 70
     0
300
1:16
140
1.0
141
16.0
290
     0
  0
SCALE
  5
43
102
{ACAD_REACTORS
330
3B
102
}
330
3B
100
AcDbScale
 70
     0
300
1:20
140
1.0
141
20.0
290
     0
  0
SCALE
  5
44
102
{ACAD_REACTORS
330
3B
102
}
330
3B
100
AcDbScale
 70
     0
300
1:30
140
1.0
141
30.0
290
     0
  0
SCALE
  5
45
102
{ACAD_REACTORS
330
3B
102
}
330
3B
100
AcDbScale
 70
     0
300
1:40
140
1.0
141
40.0
290
     0
  0
SCALE
  5
46
102
{ACAD_REACTORS
330
3B
102
}
330
3B
100
AcDbScale
 70
     0
300
1:50
140
1.0
141
50.0
290
     0
  0
SCALE
  5
47
102
{ACAD_REACTORS
330
3B
102
}
330
3B
100
AcDbScale
 70
     0
300
1:100
140
1.0
141
100.0
290
     0
  0
SCALE
  5
48
102
{ACAD_REACTORS
330
3B
102
}
330
3B
100
AcDbScale
 70
     0
300
2:1
140
2.0
141
1.0
290
     0
  0
SCALE
  5
49
102
{ACAD_REACTORS
330
3B
102
}
330
3B
100
AcDbScale
 70
     0
300
4:1
140
4.0
141
1.0
290
     0
  0
SCALE
  5
4A
102
{ACAD_REACTORS
330
3B
102
}
330
3B
100
AcDbScale
 70
     0
300
8:1
140
8.0
141
1.0
290
     0
  0
SCALE
  5
4B
102
{ACAD_REACTORS
330
3B
102
}
330
3B
100
AcDbScale
 70
     0
300
10:1
140
10.0
141
1.0
290
     0
  0
SCALE
  5
4C
102
{ACAD_REACTORS
330
3B
102
}
330
3B
100
AcDbScale
 70
     0
300
100:1
140
100.0
141
1.0
290
     0
  0
SCALE
  5
4D
102
{ACAD_REACTORS
330
3B
102
}
330
3B
100
AcDbScale
 70
     0
300
1/128" = 1'-0"
140
0.0078125
141
12.0
290
     0
  0
SCALE
  5
4E
102
{ACAD_REACTORS
330
3B
102
}
330
3B
100
AcDbScale
 70
     0
300
1/64" = 1'-0"
140
0.015625
141
12.0
290
     0
  0
SCALE
  5
4F
102
{ACAD_REACTORS
330
3B
102
}
330
3B
100
AcDbScale
 70
     0
300
1/32" = 1'-0"
140
0.03125
141
12.0
290
     0
  0
SCALE
  5
50
102
{ACAD_REACTORS
330
3B
102
}
330
3B
100
AcDbScale
 70
     0
300
1/16" = 1'-0"
140
0.0625
141
12.0
290
     0
  0
SCALE
  5
51
102
{ACAD_REACTORS
330
3B
102
}
330
3B
100
AcDbScale
 70
     0
300
3/32" = 1'-0"
140
0.09375
141
12.0
290
     0
  0
SCALE
  5
52
102
{ACAD_REACTORS
330
3B
102
}
330
3B
100
AcDbScale
 70
     0
300
1/8" = 1'-0"
140
0.125
141
12.0
290
     0
  0
SCALE
  5
53
102
{ACAD_REACTORS
330
3B
102
}
330
3B
100
AcDbScale
 70
     0
300
3/16" = 1'-0"
140
0.1875
141
12.0
290
     0
  0
SCALE
  5
54
102
{ACAD_REACTORS
330
3B
102
}
330
3B
100
AcDbScale
 70
     0
300
1/4" = 1'-0"
140
0.25
141
12.0
290
     0
  0
SCALE
  5
55
102
{ACAD_REACTORS
330
3B
102
}
330
3B
100
AcDbScale
 70
     0
300
3/8" = 1'-0"
140
0.375
141
12.0
290
     0
  0
SCALE
  5
56
102
{ACAD_REACTORS
330
3B
102
}
330
3B
100
AcDbScale
 70
     0
300
1/2" = 1'-0"
140
0.5
141
12.0
290
     0
  0
SCALE
  5
57
102
{ACAD_REACTORS
330
3B
102
}
330
3B
100
AcDbScale
 70
     0
300
3/4" = 1'-0"
140
0.75
141
12.0
290
     0
  0
SCALE
  5
58
102
{ACAD_REACTORS
330
3B
102
}
330
3B
100
AcDbScale
 70
     0
300
1" = 1'-0"
140
1.0
141
12.0
290
     0
  0
SCALE
  5
59
102
{ACAD_REACTORS
330
3B
102
}
330
3B
100
AcDbScale
 70
     0
300
1-1/2" = 1'-0"
140
1.5
141
12.0
290
     0
  0
SCALE
  5
5A
102
{ACAD_REACTORS
330
3B
102
}
330
3B
100
AcDbScale
 70
     0
300
3" = 1'-0"
140
3.0
141
12.0
290
     0
  0
SCALE
  5
5B
102
{ACAD_REACTORS
330
3B
102
}
330
3B
100
AcDbScale
 70
     0
300
6" = 1'-0"
140
6.0
141
12.0
290
     0
  0
SCALE
  5
5C
102
{ACAD_REACTORS
330
3B
102
}
330
3B
100
AcDbScale
 70
     0
300
1'-0" = 1'-0"
140
12.0
141
12.0
290
     0
  0
VISUALSTYLE
  5
2F
102
{ACAD_REACTORS
330
2A
102
}
330
2A
100
AcDbVisualStyle
  2
2dWireframe
 70
     4
 71
     0
 72
     2
 73
     0
 90
        0
 40
-0.6
 41
-30.0
 62
     5
 63
     7
421
 16777215
 74
     1
 91
        4
 64
     7
 65
   257
 75
     1
175
     1
 42
1.0
 92
        0
 66
   257
 43
1.0
 76
     1
 77
     6
 78
     2
 67
     7
 79
     5
170
     0
171
     0
290
     0
174
     0
 93
        1
 44
0.0
173
     0
291
     0
 45
0.0
  0
VISUALSTYLE
  5
31
102
{ACAD_REACTORS
330
2A
102
}
330
2A
100
AcDbVisualStyle
  2
3D Hidden
 70
     6
 71
     1
 72
     2
 73
     2
 90
        0
 40
-0.6
 41
-30.0
 62
     5
 63
     7
421
 16777215
 74
     2
 91
        2
 64
     7
 65
   257
 75
     2
175
     1
 42
40.0
 92
        0
 66
   257
 43
1.0
 76
     1
 77
     6
 78
     2
 67
     7
 79
     3
170
     0
171
     0
290
     0
174
     0
 93
        1
 44
0.0
173
     0
291
     0
 45
0.0
  0
VISUALSTYLE
  5
30
102
{ACAD_REACTORS
330
2A
102
}
330
2A
100
AcDbVisualStyle
  2
3dWireframe
 70
     5
 71
     0
 72
     2
 73
     0
 90
        0
 40
-0.6
 41
-30.0
 62
     5
 63
     7
421
 16777215
 74
     1
 91
        4
 64
     7
 65
   257
 75
     1
175
     1
 42
1.0
 92
        0
 66
   257
 43
1.0
 76
     1
 77
     6
 78
     2
 67
     7
 79
     5
170
     0
171
     0
290
     0
174
     0
 93
        1
 44
0.0
173
     0
291
     0
 45
0.0
  0
VISUALSTYLE
  5
32
102
{ACAD_REACTORS
330
2A
102
}
330
2A
100
AcDbVisualStyle
  2
Basic
 70
     7
 71
     1
 72
     0
 73
     1
 90
        0
 40
-0.6
 41
-30.0
 62
     5
 63
     7
421
 16777215
 74
     0
 91
        4
 64
     7
 65
   257
 75
     1
175
     1
 42
1.0
 92
        8
 66
     7
 43
1.0
 76
     1
 77
     6
 78
     2
 67
     7
 79
     5
170
     0
171
     0
290
     0
174
     0
 93
        1
 44
0.0
173
     0
291
     1
 45
0.0
  0
VISUALSTYLE
  5
36
102
{ACAD_REACTORS
330
2A
102
}
330
2A
100
AcDbVisualStyle
  2
Brighten
 70
    12
 71
     2
 72
     2
 73
     0
 90
        0
 40
-0.6
 41
-30.0
 62
     5
 63
     7
421
 16777215
 74
     1
 91
        4
 64
     7
 65
   257
 75
     1
175
     1
 42
1.0
 92
        8
 66
     7
 43
1.0
 76
     1
 77
     6
 78
     2
 67
     7
 79
     5
170
     0
171
     0
290
     0
174
     0
 93
        1
 44
50.0
173
     0
291
     1
 45
0.0
  0
VISUALSTYLE
  5
3A
102
{ACAD_REACTORS
330
2A
102
}
330
2A
100
AcDbVisualStyle
  2
ColorChange
 70
    16
 71
     2
 72
     2
 73
     3
 90
        0
 40
-0.6
 41
-30.0
 62
     5
 63
     8
421
  8421504
 74
     1
 91
        4
 64
     7
 65
   257
 75
     1
175
     1
 42
1.0
 92
        8
 66
     8
424
  8421504
 43
1.0
 76
     1
 77
     6
 78
     2
 67
     7
 79
     5
170
     0
171
     0
290
     0
174
     0
 93
        1
 44
0.0
173
     0
291
     1
 45
0.0
  0
VISUALSTYLE
  5
34
102
{ACAD_REACTORS
330
2A
102
}
330
2A
100
AcDbVisualStyle
  2
Conceptual
 70
     9
 71
     3
 72
     2
 73
     0
 90
        0
 40
-0.6
 41
-30.0
 62
     5
 63
     7
421
 16777215
 74
     2
 91
        2
 64
     7
 65
   257
 75
     1
175
     1
 42
40.0
 92
        8
 66
     7
 43
1.0
 76
     1
 77
     6
 78
     2
 67
     7
 79
     3
170
     0
171
     0
290
     0
174
     0
 93
        1
 44
0.0
173
     0
291
     0
 45
0.0
  0
VISUALSTYLE
  5
35
102
{ACAD_REACTORS
330
2A
102
}
330
2A
100
AcDbVisualStyle
  2
Dim
 70
    11
 71
     2
 72
     2
 73
     0
 90
        0
 40
-0.6
 41
-30.0
 62
     5
 63
     7
421
 16777215
 74
     1
 91
        4
 64
     7
 65
   257
 75
     1
175
     1
 42
1.0
 92
        8
 66
     7
 43
1.0
 76
     1
 77
     6
 78
     2
 67
     7
 79
     5
170
     0
171
     0
290
     0
174
     0
 93
        1
 44
-50.0
173
     0
291
     1
 45
0.0
  0
VISUALSTYLE
  5
39
102
{ACAD_REACTORS
330
2A
102
}
330
2A
100
AcDbVisualStyle
  2
Facepattern
 70
    15
 71
     2
 72
     2
 73
     0
 90
        0
 40
-0.6
 41
-30.0
 62
     5
 63
     7
421
 16777215
 74
     1
 91
        4
 64
     7
 65
   257
 75
     1
175
     1
 42
1.0
 92
        8
 66
     7
 43
1.0
 76
     1
 77
     6
 78
     2
 67
     7
 79
     5
170
     0
171
     0
290
     0
174
     0
 93
        1
 44
0.0
173
     0
291
     1
 45
0.0
  0
VISUALSTYLE
  5
2B
102
{ACAD_REACTORS
330
2A
102
}
330
2A
100
AcDbVisualStyle
  2
Flat
 70
     0
 71
     2
 72
     1
 73
     1
 90
        2
 40
-0.6
 41
30.0
 62
     5
 63
     7
421
 16777215
 74
     0
 91
        4
 64
     7
 65
   257
 75
     1
175
     1
 42
1.0
 92
        8
 66
     7
 43
1.0
 76
     1
 77
     6
 78
     2
 67
     7
 79
     5
170
     0
171
     0
290
     0
174
     0
 93
       13
 44
0.0
173
     0
291
     1
 45
0.0
  0
VISUALSTYLE
  5
2C
102
{ACAD_REACTORS
330
2A
102
}
330
2A
100
AcDbVisualStyle
  2
FlatWithEdges
 70
     1
 71
     2
 72
     1
 73
     1
 90
        2
 40
-0.6
 41
30.0
 62
     5
 63
     7
421
 16777215
 74
     1
 91
        4
 64
     7
 65
   257
 75
     1
175
     1
 42
1.0
 92
        0
 66
   257
 43
1.0
 76
     1
 77
     6
 78
     2
 67
     7
 79
     5
170
     0
171
     0
290
     0
174
     0
 93
       13
 44
0.0
173
     0
291
     1
 45
0.0
  0
VISUALSTYLE
  5
2D
102
{ACAD_REACTORS
330
2A
102
}
330
2A
100
AcDbVisualStyle
  2
Gouraud
 70
     2
 71
     2
 72
     2
 73
     1
 90
        2
 40
-0.6
 41
30.0
 62
     5
 63
     7
421
 16777215
 74
     0
 91
        4
 64
     7
 65
   257
 75
     1
175
     1
 42
1.0
 92
        0
 66
     7
 43
1.0
 76
     1
 77
     6
 78
     2
 67
     7
 79
     5
170
     0
171
     0
290
     0
174
     0
 93
       13
 44
0.0
173
     0
291
     1
 45
0.0
  0
VISUALSTYLE
  5
2E
102
{ACAD_REACTORS
330
2A
102
}
330
2A
100
AcDbVisualStyle
  2
GouraudWithEdges
 70
     3
 71
     2
 72
     2
 73
     1
 90
        2
 40
-0.6
 41
30.0
 62
     5
 63
     7
421
 16777215
 74
     1
 91
        4
 64
     7
 65
   257
 75
     1
175
     1
 42
1.0
 92
        0
 66
   257
 43
1.0
 76
     1
 77
     6
 78
     2
 67
     7
 79
     5
170
     0
171
     0
290
     0
174
     0
 93
       13
 44
0.0
173
     0
291
     1
 45
0.0
  0
VISUALSTYLE
  5
38
102
{ACAD_REACTORS
330
2A
102
}
330
2A
100
AcDbVisualStyle
  2
Linepattern
 70
    14
 71
     2
 72
     2
 73
     0
 90
        0
 40
-0.6
 41
-30.0
 62
     5
 63
     7
421
 16777215
 74
     1
 91
        4
 64
     7
 65
   257
 75
     7
175
     7
 42
1.0
 92
        8
 66
     7
 43
1.0
 76
     1
 77
     6
 78
     2
 67
     7
 79
     5
170
     0
171
     0
290
     0
174
     0
 93
        1
 44
0.0
173
     0
291
     1
 45
0.0
  0
VISUALSTYLE
  5
33
102
{ACAD_REACTORS
330
2A
102
}
330
2A
100
AcDbVisualStyle
  2
Realistic
 70
     8
 71
     2
 72
     2
 73
     0
 90
        0
 40
-0.6
 41
-30.0
 62
     5
 63
     7
421
 16777215
 74
     1
 91
        0
 64
     7
 65
   257
 75
     1
175
     1
 42
1.0
 92
        8
 66
     8
424
  7895160
 43
1.0
 76
     1
 77
     6
 78
     2
 67
     7
 79
     5
170
     0
171
     0
290
     0
174
     0
 93
       13
 44
0.0
173
     0
291
     0
 45
0.0
  0
VISUALSTYLE
  5
37
102
{ACAD_REACTORS
330
2A
102
}
330
2A
100
AcDbVisualStyle
  2
Thicken
 70
    13
 71
     2
 72
     2
 73
     0
 90
        0
 40
-0.6
 41
-30.0
 62
     5
 63
     7
421
 16777215
 74
     1
 91
        4
 64
     7
 65
   257
 75
     1
175
     1
 42
1.0
 92
       12
 66
     7
 43
1.0
 76
     1
 77
     6
 78
     2
 67
     7
 79
     5
170
     0
171
     0
290
     0
174
     0
 93
        1
 44
0.0
173
     0
291
     1
 45
0.0
  0
ENDSEC
  0
EOF
